<?xml version="1.0" encoding="UTF-8" standalone="no"?><!DOCTYPE svg PUBLIC "-//W3C//DTD SVG 1.1//EN" "http://www.w3.org/Graphics/SVG/1.1/DTD/svg11.dtd"><svg width="100%" height="100%" viewBox="0 0 1295 1109" version="1.1" xmlns="http://www.w3.org/2000/svg" xmlns:xlink="http://www.w3.org/1999/xlink" xml:space="preserve" xmlns:serif="http://www.serif.com/" style="fill-rule:evenodd;clip-rule:evenodd;stroke-linecap:round;stroke-linejoin:round;stroke-miterlimit:1.5;"><path d="M450.698,216.033c0,-18.502 -15.022,-33.524 -33.524,-33.524l-174.981,-0c-18.503,-0 -33.525,15.022 -33.525,33.524l0,633.988c0,18.503 15.022,33.525 33.525,33.525l174.981,-0c18.502,-0 33.524,-15.022 33.524,-33.525l0,-633.988Z" style="fill:#0087ff;"/><path d="M439.913,215.821c-0,-10.357 -8.409,-18.765 -18.765,-18.765l-183.514,-0c-10.357,-0 -18.765,8.408 -18.765,18.765l0,635.47c0,10.357 8.408,18.765 18.765,18.765l183.514,-0c10.356,-0 18.765,-8.408 18.765,-18.765l-0,-635.47Z" style="fill:#fafeff;"/><path d="M810.706,436.521c1.301,9.613 4.106,18.75 8.159,27.169c-3.197,6.242 -5.687,12.902 -7.349,19.879c-2.3,-7.948 -3.516,-16.34 -3.516,-25.013c0,-7.599 0.933,-14.982 2.706,-22.035Z" style="fill:#00fbff;"/><path d="M1087.52,924.031l-229.652,-228.375l114.277,-220.589l200.639,386.63l-85.264,62.334Z" style="fill:#00bdff;"/><path d="M1190.91,47.808l-100.386,-47.808l-325.392,326.918l89.844,372.638l335.934,-651.748Z" style="fill:#00f9ff;"/><path d="M859.5,699.556l-5.926,-5.932l-164.509,-693.624l170.435,699.556Z" style="fill:#fcfbfb;fill-opacity:0.3;"/><path d="M627.911,465.408l-3.867,-465.408l-53.044,0l-87.038,326.918l139.881,136.772l2.885,2.887l1.183,-1.169Z" style="fill:#0088ab;"/><path d="M506.021,287.052l0.416,2.674c0.937,5.315 2.492,10.418 4.585,15.231l1.091,2.382c-2.383,4.654 -4.241,9.618 -5.495,14.816c-1.713,-5.927 -2.618,-12.183 -2.618,-18.65c0,-5.674 0.697,-11.186 2.021,-16.453Z" style="fill:#ff666d;"/><path d="M811.505,483.532c1.681,-6.961 4.168,-13.61 7.36,-19.842c14.715,30.457 45.913,51.49 81.984,51.49c35.383,0 66.076,-20.238 81.102,-49.771c2.232,4.618 4.086,9.452 5.508,14.466c-9.584,39.956 -45.578,69.681 -88.459,69.681c-41.561,-0 -76.651,-27.922 -87.495,-66.024Z" style="fill:#ffce6b;"/><path d="M626.897,343.434c-12.341,16.981 -32.365,28.021 -54.947,28.021c-31.024,0 -57.22,-20.836 -65.325,-49.273c1.242,-5.21 3.101,-10.183 5.488,-14.843l1.484,2.877l0.071,0.124l0.647,1.179l0.69,1.157l0.087,0.152l1.605,2.538l0.571,0.821l0.233,0.359l0.269,0.361l0.612,0.879l0.112,0.151l1.732,2.269l0.18,0.215l0.594,0.742l0.958,1.116l0.186,0.223l1.99,2.179l1.988,2.001c0,0 0.146,0.146 0.146,0.146l0.29,0.267l0.897,0.851l0.72,0.637l0.293,0.269l0.239,0.201l0.502,0.446l1.296,1.069l0.25,0.211l0.075,0.058l0.187,0.154l0.413,0.319l0.502,0.394l0.539,0.407l0.405,0.311l0.177,0.127l0.074,0.057l0.288,0.202l1.37,0.981l0.513,0.342l0.282,0.198l0.389,0.248l0.773,0.514l0.944,0.582l0.424,0.272l2.484,1.435l0.141,0.081l0.271,0.14l0.082,0.047l0.87,0.463l0.409,0.208l0.52,0.273l0.306,0.147l0.198,0.103l0.485,0.225l1.146,0.551l0.696,0.305l0.416,0.194l0.407,0.167l0.655,0.288l1.239,0.491l0.507,0.209l0.194,0.069l0.274,0.109l0.436,0.156l0.59,0.219l0.95,0.33l0.275,0.098l0.15,0.05l0.327,0.101l1.809,0.573c0,0 0.469,0.131 0.469,0.131l0.322,0.1l0.54,0.14l0.99,0.275l0.922,0.221c-0,0 0.53,0.138 0.53,0.138l0.367,0.077c-0,0 0.534,0.128 0.534,0.128l1.674,0.339c-0,-0 0.458,0.097 0.458,0.097l0.108,0.018l0.143,0.029l0.431,0.071l0.819,0.142l0.65,0.1l0.513,0.084l0.238,0.031l0.178,0.029l0.558,0.065l1.467,0.188l0.66,0.06l0.441,0.051l0.52,0.037c0,-0 0.846,0.077 0.846,0.077l1.198,0.065l0.602,0.042l0.29,0.007c0.965,0.047 1.937,0.068 2.915,0.068l2.467,-0.044l0.28,-0.015c-0,-0 0.222,-0.005 0.222,-0.005l0.649,-0.042c0,-0 1.293,-0.069 1.293,-0.069l0.571,-0.051c-0,-0 0.423,-0.028 0.423,-0.028l0.572,-0.061l0.855,-0.077l0.892,-0.112l0.582,-0.063l0.396,-0.06c-0,0 0.526,-0.066 0.526,-0.066l1.32,-0.213l0.622,-0.094l2.797,-0.547l2.283,-0.537l0.289,-0.079l0.234,-0.056l0.617,-0.176l1.141,-0.311l0.556,-0.173l0.421,-0.12l0.523,-0.173l0.748,-0.233l0.849,-0.296l0.567,-0.188l0.353,-0.134l0.445,-0.155l1.243,-0.483l0.595,-0.226l2.583,-1.102l0.42,-0.2l1.583,-0.745l0.269,-0.138l0.254,-0.122l0.607,-0.321l0.933,-0.478l0.497,-0.277l0.431,-0.228l0.494,-0.288l0.599,-0.334l0.735,-0.443l0.579,-0.337l0.331,-0.212l0.334,-0.201l1.033,-0.671l0.645,-0.412l0.158,-0.11c0.677,-0.455 1.347,-0.923 2.009,-1.401l0.11,-0.077l0.663,-0.504l1.044,-0.784l0.205,-0.165l0.295,-0.224l0.642,-0.53l0.65,-0.523l0.374,-0.323l0.47,-0.388l0.497,-0.446l0.4,-0.344l0.525,-0.485l0.64,-0.573l0.336,-0.326l0.187,-0.174l1.636,-1.613l0.784,-0.828l0.085,-0.086l0.07,-0.078l0.641,-0.676l1.524,-1.72l0.098,-0.119l0.351,-0.401l0.696,-0.864l0.32,-0.387l0.197,-0.255l0.106,-0.132l0.196,23.579Z" style="fill:#55d764;"/><path d="M818.875,463.671c-4.065,-8.408 -6.868,-17.541 -8.169,-27.15c9.849,-39.595 45.669,-68.965 88.294,-68.965c46.036,-0 84.133,34.258 90.143,78.659c-1.674,6.727 -4.097,13.159 -7.192,19.193c-14.715,-30.456 -45.912,-51.488 -81.983,-51.488c-35.376,-0 -66.064,20.229 -81.093,49.751Z" style="fill:#620047;"/><path d="M818.875,463.671c15.029,-29.522 45.717,-49.751 81.093,-49.751c36.071,-0 67.268,21.032 81.983,51.488l-0.032,0.063c-1.827,3.584 -3.885,7.031 -6.157,10.32l-0.201,0.295l-1.434,1.993l-0.557,0.752l-1.388,1.797l-0.692,0.86l-1.402,1.694l-0.731,0.835l-1.441,1.628c-0.706,0.745 -1.411,1.489 -2.117,2.234l-1.33,1.312l-1.111,1.08l-1.307,1.205l-1.239,1.111l-1.295,1.117l-1.372,1.132l-1.253,1.01l-1.673,1.271l-1.036,0.778l-2.691,1.876l-1.075,0.699l-1.83,1.169l-1.218,0.734l-1.787,1.041l-1.24,0.691l-1.914,1.012l-1.154,0.592l-2.48,1.183l-0.642,0.302l-3.162,1.349l-1.014,0.395l-2.261,0.855l-1.232,0.431l-2.138,0.708l-1.265,0.393l-2.272,0.648l-1.141,0.311l-3.109,0.746l-0.335,0.079l-3.491,0.682l-1.087,0.176l-2.473,0.374l-1.31,0.164l-2.339,0.253l-1.333,0.119l-2.496,0.161l-1.167,0.063l-3.678,0.079l-3.904,-0.091l-1.194,-0.065l-2.738,-0.191l-1.287,-0.117l-2.848,-0.332l-0.986,-0.126l-3.742,-0.613l-0.759,-0.153l-2.957,-0.625l-1.201,-0.288l-2.56,-0.665l-1.155,-0.322l-3.051,-0.942l-0.519,-0.165l-3.501,-1.258l-0.938,-0.373l-2.537,-1.043l-1.103,-0.483l-2.466,-1.147l-0.915,-0.439l-3.291,-1.713l-0.19,-0.108l-3.003,-1.735l-0.891,-0.55l-2.299,-1.468l-0.899,-0.598l-2.522,-1.772l-0.485,-0.347l-2.977,-2.292l-0.435,-0.36l-2.408,-2.029l-0.712,-0.629l-2.166,-1.993l-0.583,-0.553l-2.63,-2.641l-2.582,-2.831l-0.365,-0.425l-2.079,-2.489l-0.447,-0.558l-2.114,-2.769l-0.15,-0.201l-2.256,-3.241l-2.069,-3.271l-0.197,-0.332l-1.791,-3.128l-0.15,-0.274l-1.793,-3.484l-0.129,-0.28Z"/><path d="M515.152,312.924l-0.147,-0.248l-1.337,-2.336l-0.113,-0.205l-1.339,-2.601l-0.095,-0.209l1.086,-2.046c9.332,-16.877 25.643,-29.362 45.03,-33.564l3.347,-0.633l0.962,-0.139l2.36,-0.317l1.168,-0.118l2.24,-0.18l1.174,-0.067l3.184,-0.085l3.052,0.075l0.861,0.047l2.283,0.169l0.798,0.072l2.327,0.293l0.944,0.123l3.028,0.533c-7.39,4.213 -12.786,11.52 -14.425,20.152l-0.264,1.535l-0.034,0.331c-0.163,1.221 -0.242,2.467 -0.242,3.731c0,3.624 0.651,7.096 1.876,10.297c0.652,1.775 1.469,3.469 2.446,5.06l0.75,1.233c0.57,0.762 1.14,1.524 1.709,2.286l1.792,1.971c5.376,5.455 12.85,8.834 21.108,8.834l1.527,-0.038l2.627,-0.251c9.403,-1.319 17.396,-7.05 21.798,-15.036l0.068,8.256l-0.106,0.138l-0.517,0.642l-1.047,1.265l-0.545,0.624c-0,-0 -1.718,1.891 -1.718,1.891l-0.155,0.164l-1.778,1.808c0,-0 -0.829,0.807 -0.829,0.807l-0.976,0.899l-0.925,0.829l-0.967,0.834l-1.024,0.846l-0.937,0.754l-1.249,0.949l-0.773,0.581l-2.009,1.401l-0.803,0.522l-1.367,0.872l-0.91,0.549l-1.334,0.777l-0.925,0.516l-1.43,0.755l-0.861,0.443l-1.852,0.883l-0.48,0.225l-2.36,1.008l-0.758,0.295l-1.688,0.638l-0.92,0.322l-1.597,0.529l-0.944,0.293l-1.697,0.484l-0.851,0.232l-2.322,0.557l-0.25,0.059l-2.607,0.509l-0.812,0.132l-1.846,0.279c-0,0 -0.978,0.123 -0.978,0.123l-1.747,0.189l-0.995,0.089c-0,-0 -1.864,0.12 -1.864,0.12c0,-0 -0.871,0.047 -0.871,0.047c-0,-0 -2.747,0.059 -2.747,0.059l-2.915,-0.068l-0.892,-0.049l-2.044,-0.142c0,-0 -0.961,-0.088 -0.961,-0.088l-2.127,-0.248l-0.736,-0.094l-2.794,-0.457l-0.566,-0.115l-2.208,-0.467c-0,0 -0.897,-0.215 -0.897,-0.215c-0,0 -1.912,-0.496 -1.912,-0.496l-0.862,-0.24l-2.278,-0.704l-0.388,-0.123l-2.614,-0.94l-0.701,-0.278l-1.894,-0.779l-0.823,-0.361l-1.842,-0.856l-0.683,-0.328l-2.187,-1.138l-2.655,-1.517l-0.665,-0.411l-1.717,-1.096l-0.671,-0.446l-1.883,-1.323l-0.362,-0.259l-2.223,-1.712l-0.325,-0.269l-1.798,-1.515l-0.532,-0.47l-1.617,-1.488l-0.436,-0.413c0,0 -1.988,-2.002 -1.988,-2.002l-1.904,-2.083c0,-0 -0.272,-0.318 -0.272,-0.318l-1.552,-1.858l-0.334,-0.417l-2.302,-3.097l-0.502,-0.72l-2.116,-3.263Z" style="fill:#ffed85;"/><path d="M560.773,344.623l-0.478,-0.097c-0,-0 0.478,0.097 0.478,0.097Z" style="fill:#ffed85;"/><path d="M570.415,345.719l2.915,0.068l-2.915,-0.068Z" style="fill:#ffed85;"/><path d="M576.077,345.728c-0,-0 -0,-0 -0,-0Z" style="fill:#ffed85;"/><path d="M576.948,345.681c0,-0 0,-0 0,-0Z" style="fill:#ffed85;"/><path d="M578.812,345.561c-0,-0 -0,-0 -0,-0Z" style="fill:#ffed85;"/><path d="M567.479,345.528c0,-0 0,-0 0,-0Z" style="fill:#ffed85;"/><path d="M582.532,345.16c-0,0 -0,0 -0,0Z" style="fill:#ffed85;"/><path d="M588.047,344.181c0,0 -0.25,0.059 -0.25,0.059l-2.607,0.509c0,0 2.607,-0.509 2.607,-0.509l0.25,-0.059Z" style="fill:#ffed85;"/><path d="M560.295,344.526c-0,-0 0.478,0.097 0.478,0.097l-0.478,-0.097Z" style="fill:#ffed85;"/><path d="M558.087,344.059c-0,0 -0,0 -0,0Z" style="fill:#ffed85;"/><path d="M557.19,343.844c-0,0 -0,0 -0,0Z" style="fill:#ffed85;"/><path d="M601.184,339.823l-1.752,0.749c-0,-0 1.752,-0.749 1.752,-0.749Z" style="fill:#ffed85;"/><path d="M538.351,336.084l2.655,1.517l-0.271,-0.14l-0.141,-0.081l-2.243,-1.296Z" style="fill:#ffed85;"/><path d="M613.155,332.88c-0,-0 -2.009,1.401 -2.009,1.401c-0,0 2.009,-1.401 2.009,-1.401Z" style="fill:#ffed85;"/><path d="M524.134,324.68l1.988,2.002l-1.988,-2.001l-1.904,-2.084l1.904,2.083Z" style="fill:#ffed85;"/><path d="M517.77,316.907l2.302,3.097c0,0 -1.578,-2.067 -1.578,-2.067l-0.112,-0.151l-0.612,-0.879Z" style="fill:#ffed85;"/><path d="M515.152,312.924l2.116,3.263l-0.571,-0.821l-1.545,-2.442Z" style="fill:#ffed85;"/><path d="M901.294,417.107c20.992,1.068 37.706,18.447 37.706,39.699c0,21.252 -16.714,38.631 -37.706,39.698l-2.044,0.052c-21.939,-0 -39.75,-17.812 -39.75,-39.75c0,-21.939 17.811,-39.75 39.75,-39.75l2.044,0.051Z" style="fill:#fff;stroke:#000;stroke-width:6.5px;"/><path d="M900.354,420.371c11.334,0.576 20.359,9.96 20.359,21.435c-0,11.475 -9.025,20.858 -20.359,21.435l-1.104,0.028c-11.846,-0 -21.463,-9.618 -21.463,-21.463c0,-11.846 9.617,-21.463 21.463,-21.463l1.104,0.028Z"/><path d="M571.54,291.64c1.639,-8.632 7.035,-15.939 14.425,-20.152l3.127,0.705l1.353,0.364l1.611,0.452l1.632,0.512l1.509,0.516l1.411,0.508l0.905,0.354l1.851,0.751l2.395,1.082c0.767,0.382 1.533,0.763 2.299,1.144l1.838,0.999l0.474,0.263l1.244,0.734l1.49,0.913l0.443,0.282l1.836,1.238l0.86,0.607c5.404,3.872 10.214,8.523 14.266,13.788l0.124,14.893l-0.978,1.641l-0.593,0.871l-0.699,0.976l-0.62,0.797l-0.91,1.068l-0.521,0.59l-1.493,1.482l-0.562,0.495l-1.177,0.987l-0.62,0.481l-1.467,1.033l-0.367,0.25l-1.913,1.12l-0.577,0.294l-1.518,0.722l-0.641,0.277l-1.937,0.725l-0.208,0.075l-2.213,0.615l-0.645,0.14l-1.721,0.32l-0.682,0.102l-2.363,0.226l-1.527,0.038c-8.258,0 -15.732,-3.379 -21.108,-8.834l-1.792,-1.971c-0.569,-0.762 -1.139,-1.524 -1.709,-2.286l-1.358,-2.234c-0.721,-1.293 -1.347,-2.646 -1.838,-4.059c-1.225,-3.201 -1.876,-6.673 -1.876,-10.297c0,-1.264 0.079,-2.51 0.242,-3.731l0.034,-0.331l0.264,-1.535Z" style="fill:#00f;"/><path d="M579.573,318.084c5.376,5.455 12.85,8.834 21.108,8.834l1.527,-0.038l2.363,-0.226c-0.777,0.113 -1.566,0.185 -2.363,0.226l-1.527,0.038c-8.258,0 -15.732,-3.379 -21.108,-8.834Z" style="fill:#00f;"/><path d="M606.083,326.427l-0.83,0.125l1.721,-0.32l-0.891,0.195Z" style="fill:#00f;"/><path d="M609.832,325.477l-2.213,0.615c0.75,-0.171 1.488,-0.38 2.213,-0.615Z" style="fill:#00f;"/><path d="M611.571,324.853l-1.531,0.549l1.937,-0.725l-0.406,0.176Z" style="fill:#00f;"/><path d="M613.296,324.107l-0.678,0.293l1.518,-0.722l-0.84,0.429Z" style="fill:#00f;"/><path d="M616.626,322.264l-1.913,1.12c0.655,-0.347 1.292,-0.722 1.913,-1.12Z" style="fill:#00f;"/><path d="M618.103,321.259l-1.11,0.755l1.467,-1.033l-0.357,0.278Z" style="fill:#00f;"/><path d="M619.569,320.12l-0.489,0.38l1.177,-0.987l-0.688,0.607Z" style="fill:#00f;"/><path d="M622.312,317.536l-1.493,1.482c0.517,-0.475 1.014,-0.97 1.493,-1.482Z" style="fill:#00f;"/><path d="M623.496,316.195l-0.663,0.751l0.91,-1.068l-0.247,0.317Z" style="fill:#00f;"/><path d="M624.635,314.731l-0.272,0.35l0.699,-0.976l-0.427,0.626Z" style="fill:#00f;"/><path d="M625.682,313.195l-0.027,0.039l0.978,-1.641l-0.951,1.602Z" style="fill:#00f;"/><path d="M572.876,307.534c0.491,1.413 1.117,2.766 1.838,4.059c-0.703,-1.3 -1.322,-2.655 -1.838,-4.059Z" style="fill:#00f;"/><path d="M571.276,293.175l-0.034,0.331l0.034,-0.331l0.264,-1.535l-0.264,1.535Z" style="fill:#00f;"/><path d="M569.488,270.261l-0.506,0.013l-0.668,0.054l-1.043,0.06l-1.197,0.12l-0.732,0.059l-0.436,0.059l-0.535,0.054l-1.825,0.263l-0.787,0.106l-0.175,0.033c-0.974,0.16 -1.941,0.342 -2.9,0.544l-0.447,0.089c-18.174,3.938 -33.647,15.158 -43.2,30.452l-1.83,3.112l-1.086,2.046c-2.657,-5.494 -4.591,-11.402 -5.684,-17.599l-0.416,-2.674c7.354,-29.565 34.1,-51.496 65.929,-51.496c22.178,-0 41.889,10.648 54.276,27.116l0.279,33.508c-3.32,-4.176 -8.999,-10.023 -16.951,-15.108c-2.914,-1.891 -5.983,-3.562 -9.189,-4.977l-0.178,-0.085l-0.176,-0.072l-1.13,-0.502l-2.087,-0.818l-0.245,-0.101l-0.091,-0.031c-1.056,-0.402 -2.125,-0.771 -3.207,-1.114l-0.491,-0.166l-3.363,-0.944l-0.457,-0.103l-0.275,-0.076l-0.838,-0.175l-1.862,-0.42l-0.037,0.024l0.037,-0.024l-0.943,-0.166l-0.602,-0.125l-1.132,-0.18l-0.453,-0.08l-0.239,-0.03c-0.862,-0.132 -1.736,-0.244 -2.62,-0.34l-0.31,-0.028l-0.009,-0.001l-0.721,-0.066l-0.068,-0.005c-1.217,-0.122 -2.445,-0.2 -3.682,-0.246l-2.514,-0.045l-2.466,0.044l-0.718,0.041Z" style="fill:#7740b8;"/><path d="M585.965,271.488l-0.037,0.024l-0.906,-0.19l0.943,0.166Z" style="fill:#7740b8;"/><path d="M562.546,270.943l-0.962,0.139l0.175,-0.033l0.787,-0.106Z" style="fill:#7740b8;"/><path d="M582.835,270.937l0.453,0.08l-0.692,-0.11l0.239,0.03Z" style="fill:#7740b8;"/><path d="M566.074,270.508l-1.168,0.118l0.436,-0.059l0.732,-0.059Z" style="fill:#7740b8;"/><path d="M578.868,270.467l0.068,0.005l0.73,0.067l-0.798,-0.072Z" style="fill:#7740b8;"/><path d="M569.488,270.261l-1.174,0.067l0.668,-0.054l0.506,-0.013Z" style="fill:#7740b8;"/><path d="M603.292,277.494l0.329,0.157l0.455,0.249l0.991,0.512l1.3,0.737l0.483,0.263l0.224,0.138l-0.707,-0.401l-2.291,-1.249l-0.784,-0.406Z" style="fill:#7740b8;"/><path d="M598.881,275.436l1.13,0.502l-3.217,-1.32l2.087,0.818Z" style="fill:#7740b8;"/><path d="M588.94,272.159l0.457,0.103l3.363,0.944l0.491,0.166c1.082,0.343 2.151,0.712 3.207,1.114l-3.75,-1.287l-3.768,-1.04Z" style="fill:#7740b8;"/><path d="M587.827,271.908l-1.899,-0.396l0.037,-0.024l1.862,0.42Z" style="fill:#7740b8;"/><path d="M483.962,326.918l-483.952,0l-0,142.638l447.986,-0l-57.996,230l-365,-0c-13.807,-0 -25,-11.193 -25,-25l0,-398.5l496.788,-0l-12.826,50.862Z" style="fill:#329ab2;fill-opacity:0.34;"/><path d="M626.728,466.577l-140.111,138.538l45.942,160.768l170.001,24.726l152.421,-91.053l-1.407,-5.932l-226.846,-227.047Z" style="fill:#eebd00;fill-opacity:0.6;"/><path d="M689.065,0l-65.021,0l65.021,0Z" style="fill:#eebd00;fill-opacity:0.6;"/><path d="M605.631,675.115l-101.631,-0c0,-0 2.021,34.941 13.268,52.623c6.798,10.688 23.738,25.318 23.738,25.318l64.625,5.242l0,-83.183Z" style="fill:#0f006a;"/><path d="M853.574,693.624c-0,0 -108.917,-459.229 -149.504,-630.358c-8.795,-37.083 -41.914,-63.266 -80.026,-63.266l-0,0l3.867,465.408c-0,0 -1.286,0.625 -1.183,1.169c33.14,175.106 226.846,227.047 226.846,227.047Z" style="fill:#ff0043;fill-opacity:0.99;"/><path d="M496.788,276.056l10.212,-40.5l-482,-0c-13.807,-0 -25,11.193 -25,25l0,15.5l496.788,-0Z" style="fill:#7171f7;"/><path d="M205.553,326.918l278.409,0l-35.966,142.638l-169.205,-0l-73.238,-142.638Z" style="fill:#abf1ff;"/><path d="M1246.85,1015.22c-12.463,4.814 -23.668,12.167 -32.979,21.423l-123.34,-112.614l82.259,-62.706l74.06,153.897Z" style="fill:#0d0e76;"/><path d="M1294.41,1108.06l-79.5,-71.411c15.373,-12.411 -14.402,-67.952 4.5,-76.089l75,147.5Z" style="fill:#94c566;"/><circle cx="113.25" cy="256.546" r="9.75" style="fill:#00c900;"/><circle cx="84.364" cy="256.546" r="9.75" style="fill:#ffd900;"/><circle cx="55.477" cy="256.546" r="9.75" style="fill:#ff3200;"/><circle cx="625.038" cy="864.306" r="128.25" style="fill:#f5a4ff;"/><g><path d="M624.044,720.056l-28.544,-0l0,31.729c0,7.881 6.389,14.271 14.271,14.271c0.001,-0 0.001,-0 0.002,-0c7.881,-0 14.271,-6.39 14.271,-14.271c-0,-13.507 -0,-31.729 -0,-31.729Z" style="fill:#fcfbfb;"/><path d="M660.521,635.056l28.544,-0l0,-31.729c-0,-7.882 -6.389,-14.271 -14.271,-14.271c-0.001,-0 -0.001,-0 -0.002,-0c-7.881,-0 -14.271,6.389 -14.271,14.271c0,13.506 0,31.729 0,31.729Z" style="fill:#fcfbfb;"/><path d="M689.681,719.614l-28.543,-0l-0,31.729c-0,7.881 6.389,14.271 14.271,14.271c0,-0 0.001,-0 0.001,-0c7.882,-0 14.271,-6.39 14.271,-14.271c0,-13.507 0,-31.729 0,-31.729Z" style="fill:#fcfbfb;"/><path d="M595.3,635.056l28.543,-0l0,-31.729c0,-7.882 -6.389,-14.271 -14.271,-14.271c-0,-0 -0.001,-0 -0.001,-0c-7.882,-0 -14.271,6.389 -14.271,14.271c-0,13.506 -0,31.729 -0,31.729Z" style="fill:#fcfbfb;"/><path d="M530.078,635.056l28.544,-0l-0,-31.729c-0,-7.882 -6.389,-14.271 -14.271,-14.271c-0.001,-0 -0.001,-0 -0.002,-0c-7.881,-0 -14.271,6.389 -14.271,14.271c0,13.506 0,31.729 0,31.729Z" style="fill:#fcfbfb;"/><path d="M656.862,719.883l-28.543,-0l-0,31.729c-0,7.882 6.389,14.271 14.271,14.271c0,-0 0.001,-0 0.001,-0c7.882,-0 14.271,-6.389 14.271,-14.271c0,-13.507 0,-31.729 0,-31.729Z" style="fill:#fcfbfb;"/><path d="M627.911,635.056l28.543,-0l0,-31.729c0,-7.882 -6.389,-14.271 -14.271,-14.271c-0,-0 -0.001,-0 -0.001,-0c-7.882,-0 -14.271,6.389 -14.271,14.271c-0,13.506 -0,31.729 -0,31.729Z" style="fill:#fcfbfb;"/><path d="M722.5,719.441l-28.544,-0l0,31.729c0,7.881 6.39,14.271 14.271,14.271c0.001,-0 0.001,-0 0.002,-0c7.882,-0 14.271,-6.39 14.271,-14.271c0,-13.507 0,-31.729 0,-31.729Z" style="fill:#fcfbfb;"/><path d="M562.689,635.056l28.544,-0l-0,-31.729c-0,-7.882 -6.39,-14.271 -14.271,-14.271c-0.001,-0 -0.001,-0 -0.002,-0c-7.882,-0 -14.271,6.389 -14.271,14.271c0,13.506 0,31.729 0,31.729Z" style="fill:#fcfbfb;"/><path d="M497.468,635.056l28.543,-0l0,-31.729c0,-7.882 -6.389,-14.271 -14.271,-14.271c-0,-0 -0.001,-0 -0.001,-0c-7.882,-0 -14.271,6.389 -14.271,14.271c-0,13.506 -0,31.729 -0,31.729Z" style="fill:#fcfbfb;"/></g><path d="M205.553,326.918l73.238,142.638l-278.781,-0l-0,-142.638l205.543,0Z" style="fill:none;"/><clipPath id="_clip1"><path d="M205.553,326.918l73.238,142.638l-278.781,-0l-0,-142.638l205.543,0Z"/></clipPath><g clip-path="url(#_clip1)"><clipPath id="_clip2"><rect x="0.017" y="276.056" width="512.103" height="353.907"/></clipPath><g clip-path="url(#_clip2)"><g><path d="M511.823,538.262l-90.851,0l67.999,0l0,-262.206l-242.677,-0l0,129.42c-1.151,-0.439 -2.366,-0.658 -3.581,-0.658c-2.571,0 -5.142,0.981 -7.103,2.942l-30.224,30.224l0,-161.928l-183.761,-0l-0,144.755l-21.608,21.607l0,-166.362l511.806,-0l0,262.206Zm-276.28,-160.086l-0.378,0.69l-0.69,0.377l0.69,0.378l0.378,0.69l0.377,-0.69l0.691,-0.378l-0.691,-0.377l-0.377,-0.69Zm-15.01,-17.783l-0.377,0.69l-0.691,0.378l0.691,0.377l0.377,0.691l0.378,-0.691l0.691,-0.377l-0.691,-0.378l-0.378,-0.69Zm8.775,-47.816l-0.378,0.691l-0.691,0.377l0.691,0.378l0.378,0.69l0.377,-0.69l0.691,-0.378l-0.691,-0.377l-0.377,-0.691Z" style="fill:url(#_Linear3);"/><path d="M172.506,538.262l207.813,0l-130.503,-130.502c-3.923,-3.923 -10.283,-3.923 -14.206,0l-63.104,63.104l-0,67.398Z" style="fill:#98205f;fill-rule:nonzero;"/><path d="M197.407,445.963c3.4,2.054 6.644,3.462 14.149,3.462c14.044,0 14.044,-10.133 28.088,-10.133c14.035,0 14.035,10.133 28.07,10.133c8.817,0 12.099,-3.995 16.798,-6.969l-34.696,-34.696c-3.923,-3.922 -10.283,-3.922 -14.206,0l-38.203,38.203Z" style="fill:#a6236d;fill-rule:nonzero;"/><path d="M200.324,443.046l-39.653,-39.655l-47.366,-47.365c-0.304,-0.304 -0.616,-0.596 -0.936,-0.876c-3.576,-3.129 -8.044,-4.694 -12.512,-4.694c-4.867,0 -9.734,1.857 -13.448,5.57l-64.784,64.785l-0,-144.755l183.761,-0l0,161.928l-5.062,5.062Zm-34.101,-79.643l-0.378,0.69l-0.69,0.378l0.69,0.377l0.378,0.691l0.378,-0.691l0.69,-0.377l-0.69,-0.378l-0.378,-0.69Zm-136.766,-4.078l-0.377,0.69l-0.691,0.378l0.691,0.377l0.377,0.691l0.378,-0.691l0.69,-0.377l-0.69,-0.378l-0.378,-0.69Zm172.72,-29.018l-0.378,0.691l-0.69,0.377l0.69,0.378l0.378,0.69l0.378,-0.69l0.69,-0.378l-0.69,-0.377l-0.378,-0.691Zm-146.544,0l-0.378,0.691l-0.69,0.377l0.69,0.378l0.378,0.69l0.378,-0.69l0.69,-0.378l-0.69,-0.377l-0.378,-0.691Zm15.49,-26.848l-0.378,0.691l-0.691,0.378l0.691,0.377l0.378,0.691l0.377,-0.691l0.691,-0.377l-0.691,-0.378l-0.377,-0.691Z" style="fill:url(#_Linear4);"/><path d="M200.324,443.046l5.062,-5.062l-5.062,5.062Z" style="fill:#7b2a89;fill-rule:nonzero;"/><path d="M205.386,448.108l-5.062,-5.062l5.062,-5.062l0,10.124Z" style="fill:#894a9d;fill-rule:nonzero;"/><path d="M488.971,538.262l-67.999,0l-0,-158.64c0.513,-2.07 0.786,-4.236 0.786,-6.466c-0,-2.229 -0.273,-4.395 -0.786,-6.465l-0,-90.635l-4.18,-0l0,81.585c-2.102,-2.945 -4.792,-5.443 -7.892,-7.328c-6.416,-10.386 -17.079,-17.872 -29.562,-20.037l0,-54.22l-5.581,-0l115.214,-0l0,262.206Zm-57.152,-119.79l-0.375,0.69l-0.69,0.378l0.69,0.377l0.375,0.691l0.379,-0.691l0.69,-0.377l-0.69,-0.378l-0.379,-0.69Zm49.742,-24.827l-0.375,0.69l-0.691,0.378l0.691,0.378l0.375,0.69l0.378,-0.69l0.69,-0.378l-0.69,-0.378l-0.378,-0.69Zm-9.375,-26.301l-0.379,0.69l-0.69,0.378l0.69,0.378l0.379,0.69l0.378,-0.69l0.691,-0.378l-0.691,-0.378l-0.378,-0.69Zm-10.833,-42.773l-0.379,0.691l-0.69,0.377l0.69,0.377l0.379,0.691l0.378,-0.691l0.69,-0.377l-0.69,-0.377l-0.378,-0.691Zm-44.561,213.691l-36.473,0l-0.981,-0.981l0,-121.244c12.483,-2.166 23.146,-9.652 29.562,-20.037c3.1,-1.886 5.79,-4.384 7.892,-7.328l0,149.59Zm-19.84,-126.607l-0.379,0.691l-0.69,0.377l0.69,0.378l0.379,0.69l0.375,-0.69l0.69,-0.378l-0.69,-0.377l-0.375,-0.691Z" style="fill:url(#_Linear5);"/><path d="M295.541,453.486l-11.029,-11.03l-7.287,-7.287l-27.409,-27.409c-1.034,-1.034 -2.238,-1.795 -3.522,-2.284l0,-129.42l115.214,-0l-65.967,-0l-0,177.43Z" style="fill:url(#_Linear6);"/><path d="M295.541,530.146l-8.116,0l-41.131,-41.131l0,-48.771c7.888,2.521 10.04,9.181 21.42,9.181c8.441,0 11.809,-3.661 16.203,-6.583l11.624,11.624l-0,75.68Zm-0,-76.66l-11.029,-11.03l11.029,11.03Zm-18.316,-18.317l-27.409,-27.409c-1.034,-1.034 -2.238,-1.795 -3.522,-2.284l0,-0c1.284,0.489 2.488,1.25 3.522,2.284l27.409,27.409Z" style="fill:#7b2a89;fill-rule:nonzero;"/><path d="M267.714,449.425c-11.38,0 -13.532,-6.66 -21.42,-9.181l0,-34.32c0.916,0.46 1.776,1.071 2.541,1.836l35.082,35.082c-4.394,2.922 -7.762,6.583 -16.203,6.583Zm16.798,-6.969l-34.696,-34.696c-1.034,-1.034 -2.238,-1.787 -3.522,-2.267l0,-0.017c1.284,0.489 2.488,1.25 3.522,2.284l27.409,27.409l7.287,7.287Z" style="fill:#894a9d;fill-rule:nonzero;"/><path d="M373.757,531.702l-12.249,-12.249l0,-104.009c3.313,0.807 6.777,1.235 10.338,1.235c0.641,0 1.278,-0.014 1.911,-0.041l0,115.064Zm-12.249,-200.834l0,-54.812l12.249,-0l0,37.18l-0.524,0.525l-0.768,0.169l0.56,0.556l0.169,0.769l0.553,-0.558l0.01,-0.002l0,14.98c-0.633,-0.028 -1.27,-0.042 -1.911,-0.042c-3.561,0 -7.025,0.428 -10.338,1.235Z" style="fill:url(#_Linear7);"/><path d="M373.757,538.262l-12.249,0l0,-17.828l12.249,12.248l0,5.58Zm0,-6.56l-12.249,-12.249l12.249,12.249Z" style="fill:#7b2a89;fill-rule:nonzero;"/><path d="M379.338,537.281l-5.581,-5.579l0,-115.064c1.894,-0.082 3.759,-0.285 5.581,-0.601l0,121.244Zm0,-207.005c-1.822,-0.317 -3.687,-0.52 -5.581,-0.601l0,-14.98l0.761,-0.167l-0.559,-0.556l-0.17,-0.768l-0.032,0.032l0,-37.18l5.581,-0l0,54.22Z" style="fill:url(#_Linear8);"/><path d="M379.338,538.262l-5.581,0l0,-5.58l5.581,5.58Zm0,-0.981l-5.581,-5.579l5.581,5.579Z" style="fill:#5b5eaa;fill-rule:nonzero;"/><path d="M361.508,519.453l-7.357,-7.359l-0,-99.163c2.35,1.047 4.809,1.892 7.357,2.513l0,104.009Zm-24.069,-24.07l-41.898,-41.897l-0,-177.43l65.967,-0l0,54.812c-2.548,0.621 -5.007,1.466 -7.357,2.514l-0,-57.326l-16.712,-0l-0,70.444c-5.713,7.364 -9.116,16.614 -9.116,26.656c0,10.043 3.403,19.292 9.116,26.657l-0,95.57Z" style="fill:url(#_Linear9);"/><path d="M361.508,538.262l-7.357,0l-0,-25.187l7.357,7.359l0,17.828Zm-24.069,0l-1.866,0l-4.662,-2.655c-0.458,-0.26 -0.976,-0.397 -1.503,-0.397l-16.684,-0c-0.987,-0 -1.913,-0.48 -2.482,-1.286l-1.759,-2.492c-0.569,-0.806 -1.495,-1.286 -2.482,-1.286l-10.46,0l-0,-75.68l41.898,41.898l-0,41.898Zm24.069,-18.809l-7.357,-7.359l7.357,7.359Zm-24.069,-24.07l-41.898,-41.897l41.898,41.897Z" style="fill:#5b5eaa;fill-rule:nonzero;"/><path d="M0.017,538.262l0,-95.844l21.608,-21.607l64.784,-64.785c3.714,-3.713 8.581,-5.57 13.448,-5.57c-4.867,0 -9.734,1.857 -13.448,5.57l-48.092,48.092c9.508,6.358 9.191,14.771 22.767,14.771c15.265,-0 15.265,-17.854 30.531,-17.854c15.255,-0 15.255,17.854 30.51,17.854c15.26,-0 15.26,-17.854 30.52,-17.854c2.063,-0 3.939,0.432 5.678,1.16l127.952,127.951l-11.135,0c-0.957,0 -1.857,0.45 -2.431,1.215l-0.858,1.144c-0.573,0.765 -1.474,1.215 -2.43,1.215l-14.861,0c-1.194,0 -2.277,-0.699 -2.768,-1.786c-0.492,-1.088 -1.575,-1.788 -2.769,-1.788l-18.059,0l-23.894,-14.235l-0,-4.109l-3.972,-0l-1.561,-2.545c-0.553,-0.9 -1.533,-1.449 -2.59,-1.449l-17.829,-0c-1.011,-0 -1.956,0.503 -2.52,1.342l-4.037,6.001l-23.505,-0l-8.829,-10.351l-10.959,0l-0,2.588l3.501,1.827l0.152,5.936l-45.104,-0c-1.012,-0 -1.956,0.381 -2.521,1.018l-6.788,7.658l-7.537,-0l-0,3.756l-3.527,-0c-1.108,-0 -2.128,-0.458 -2.662,-1.195l-1.545,-2.132c-0.534,-0.736 -1.554,-1.194 -2.662,-1.194l-20.45,-0c-0.991,-0 -1.92,0.367 -2.488,0.983l-6.527,7.075c-0.568,0.616 -1.497,0.983 -2.488,0.983l-30.605,0l0,6.159Z" style="fill:url(#_Linear10);"/><path d="M370.469,629.963l-370.452,-0l0,-91.701l72.954,0l-0,1.243l-4.415,7.61l169.87,0l1.522,-5.327l3.891,-3.526l267.984,0l0,10.619l-153.832,0c-3.897,0 -7.084,3.188 -7.084,7.083c0,3.896 3.187,7.084 7.084,7.084l153.832,-0l0,18.199l-160.454,-0c-7.269,-0 -14.208,-3.026 -19.155,-8.347l6.069,0l-0,-0.66l-6.675,0l-8.31,-9.043c-4.953,-5.39 -11.938,-8.458 -19.258,-8.458l-192.089,0.001c-6.048,-0 -11.818,2.205 -16.586,5.926c-4.595,3.586 -10.257,5.536 -16.091,5.536l-79.257,-0l0,9.122l203.456,-0c4.379,-0 8.644,1.396 12.174,3.987c0.835,0.613 0.401,1.936 -0.634,1.936l-214.996,-0l0,5.915l215.542,0c7.007,0 13.831,2.236 19.481,6.382c3.529,2.591 7.794,3.988 12.173,3.988l98.846,-0c5.545,-0 10.99,-2.108 14.727,-6.2c3.904,-4.27 9.418,-6.695 15.19,-6.695l135.847,0.221l0,31.316l-131.791,0c-6.399,0 -11.633,3.963 -11.633,8.806c-0,1.848 0.771,3.562 2.07,4.983Zm-370.452,-21.885l0,8.096l209.381,0c2.226,0 4.048,-1.821 4.048,-4.048c-0,-2.226 -1.822,-4.048 -4.048,-4.048l-209.381,0Zm292.814,-0.329l0,0.659l85.484,0l0,-0.659l-85.484,-0Zm-219.86,-10.499l-0,0.564l135.757,0l0,-0.564l-135.757,0Z" style="fill:url(#_Linear11);"/><clipPath id="_clip12"><path d="M346.059,597.532l-98.846,-0c-4.379,-0 -8.644,-1.397 -12.173,-3.988c-5.65,-4.146 -12.474,-6.382 -19.481,-6.382l-215.542,0l0,-5.915l214.996,-0c1.035,-0 1.469,-1.323 0.634,-1.936c-3.53,-2.591 -7.795,-3.987 -12.174,-3.987l-203.456,-0l0,-9.122l79.257,-0c5.834,-0 11.496,-1.95 16.091,-5.536c4.768,-3.721 10.538,-5.926 16.586,-5.926l192.089,-0.001c7.32,0 14.305,3.068 19.258,8.458l8.31,9.043l-78.809,0l-0,0.66l79.415,0c4.947,5.321 11.886,8.347 19.155,8.347l160.454,-0l0,3.611l-135.847,-0.221c-5.772,-0 -11.286,2.425 -15.19,6.695c-3.737,4.092 -9.182,6.2 -14.727,6.2Zm5.31,-16.285l0,0.659l85.483,-0l-0,-0.659l-85.483,-0Zm-337.571,-9.336l-0,0.659l85.484,0l-0,-0.659l-85.484,-0Zm122.589,-9.193l0,0.66l145.293,-0l0,-0.66l-145.293,0Z"/></clipPath><g clip-path="url(#_clip12)"><rect x="0.017" y="554.739" width="511.806" height="42.793" style="fill:#808080;fill-opacity:0;"/></g><clipPath id="_clip13"><path d="M511.823,563.048l-153.832,-0c-3.897,-0 -7.084,-3.188 -7.084,-7.084c0,-3.895 3.187,-7.083 7.084,-7.083l153.832,0l0,14.167Zm-154.547,-11.678l-0,0.659l101.167,0l0,-0.659l-101.167,-0Z"/></clipPath><g clip-path="url(#_clip13)"><rect x="350.907" y="548.881" width="160.916" height="14.167" style="fill:#808080;fill-opacity:0;"/></g><clipPath id="_clip14"><path d="M209.398,616.174l-209.381,0l0,-8.096l209.381,0c2.226,0 4.048,1.822 4.048,4.048c-0,2.227 -1.822,4.048 -4.048,4.048Z"/></clipPath><g clip-path="url(#_clip14)"><rect x="0.017" y="608.078" width="213.428" height="8.096" style="fill:#808080;fill-opacity:0;"/></g><clipPath id="_clip15"><path d="M379.338,416.037l0,-17.233c1.419,-0.415 2.796,-0.945 4.109,-1.579c3.507,1.693 7.443,2.643 11.598,2.643c5.075,0 9.817,-1.414 13.855,-3.868c-6.416,10.385 -17.079,17.871 -29.562,20.037Zm29.562,-65.724c-4.042,-2.455 -8.78,-3.869 -13.855,-3.869c-4.155,0 -8.091,0.95 -11.598,2.644c-1.313,-0.634 -2.69,-1.164 -4.109,-1.579l0,-17.233c12.483,2.165 23.146,9.651 29.562,20.037Z"/></clipPath><g clip-path="url(#_clip15)"><rect x="379.338" y="330.276" width="29.562" height="85.761" style="fill:#808080;fill-opacity:0;"/></g><clipPath id="_clip16"><path d="M371.846,416.679c-3.561,0 -7.025,-0.428 -10.338,-1.235l0,-17.65c3.178,1.336 6.675,2.074 10.338,2.074c0.644,0 1.281,-0.022 1.911,-0.067l0,16.837c-0.633,0.027 -1.27,0.041 -1.911,0.041Zm-10.338,-68.161l0,-17.65c3.313,-0.807 6.777,-1.235 10.338,-1.235c0.641,0 1.278,0.014 1.911,0.042l0,16.837c-0.63,-0.045 -1.267,-0.068 -1.911,-0.068c-3.663,0 -7.16,0.739 -10.338,2.074Z"/></clipPath><g clip-path="url(#_clip16)"><rect x="361.508" y="329.633" width="12.249" height="87.046" style="fill:#808080;fill-opacity:0;"/></g><clipPath id="_clip17"><path d="M373.757,416.638l0,-16.837c1.922,-0.136 3.79,-0.476 5.581,-0.997l0,17.233c-1.822,0.316 -3.687,0.519 -5.581,0.601Zm5.581,-69.129c-1.791,-0.522 -3.659,-0.862 -5.581,-0.997l0,-16.837c1.894,0.081 3.759,0.284 5.581,0.601l0,17.233Z"/></clipPath><g clip-path="url(#_clip17)"><rect x="373.757" y="329.675" width="5.581" height="86.963" style="fill:#808080;fill-opacity:0;"/></g><clipPath id="_clip18"><path d="M186.831,410.142c-2.548,-0.621 -5.008,-1.466 -7.358,-2.514l0,-19.765c2.166,1.919 4.651,3.491 7.358,4.629l-0,17.65Zm-24.07,-15.632c-5.713,-7.364 -9.115,-16.614 -9.115,-26.656c-0,-10.042 3.402,-19.292 9.115,-26.656l0,53.312Zm16.712,-46.665l0,-19.765c2.35,-1.048 4.81,-1.893 7.358,-2.514l-0,17.65c-2.707,1.138 -5.192,2.71 -7.358,4.629Z"/></clipPath><g clip-path="url(#_clip18)"><rect x="153.646" y="325.566" width="33.185" height="84.576" style="fill:#808080;fill-opacity:0;"/></g><clipPath id="_clip19"><path d="M511.823,629.963l-141.354,-0c-1.299,-1.421 -2.07,-3.135 -2.07,-4.983c-0,-4.843 5.234,-8.806 11.633,-8.806l131.791,0l0,13.789Zm-133.596,-10.51l-0,0.66l85.486,-0l0,-0.66l-85.486,0Z"/></clipPath><g clip-path="url(#_clip19)"><rect x="368.399" y="616.174" width="143.424" height="13.788" style="fill:#808080;fill-opacity:0;"/></g><path d="M223.881,367.854c0,14.752 -11.958,26.712 -26.712,26.712c-14.751,0 -26.712,-11.96 -26.712,-26.712c-0,-14.753 11.961,-26.712 26.712,-26.712c14.754,0 26.712,11.959 26.712,26.712Z" style="fill:#f1c891;fill-rule:nonzero;"/><path d="M408.9,396c4.102,-6.641 6.469,-14.465 6.469,-22.844c0,-8.378 -2.367,-16.203 -6.469,-22.843c3.1,1.885 5.79,4.383 7.892,7.328l0,31.031c-2.102,2.944 -4.792,5.442 -7.892,7.328Zm12.072,-16.378l-0,-12.931c0.513,2.07 0.786,4.236 0.786,6.465c-0,2.23 -0.273,4.396 -0.786,6.466Z" style="fill:url(#_Linear20);"/><clipPath id="_clip21"><path d="M220.367,394.566c-4.155,0 -8.09,-0.95 -11.597,-2.643c8.943,-4.318 15.111,-13.473 15.111,-24.069c0,-10.596 -6.168,-19.751 -15.111,-24.069c3.507,-1.693 7.442,-2.643 11.597,-2.643c5.075,0 9.814,1.414 13.856,3.869c4.101,6.64 6.469,14.464 6.469,22.843c0,8.379 -2.368,16.203 -6.469,22.843c-4.038,2.455 -8.781,3.869 -13.856,3.869Z"/></clipPath><g clip-path="url(#_clip21)"><rect x="208.77" y="341.142" width="31.922" height="53.424" style="fill:#808080;fill-opacity:0;"/></g><path d="M208.77,391.923c-8.944,-4.318 -15.112,-13.473 -15.112,-24.069c-0,-10.596 6.168,-19.751 15.112,-24.069c8.943,4.318 15.111,13.473 15.111,24.069c0,10.596 -6.168,19.751 -15.111,24.069Z" style="fill:#f5d5ac;fill-rule:nonzero;"/><path d="M61.084,418.889c15.265,-0 15.265,-17.854 30.531,-17.854c15.255,-0 15.255,17.854 30.51,17.854c15.26,-0 15.26,-17.854 30.52,-17.854c3.026,-0 5.649,0.929 8.026,2.356l-47.366,-47.365c-7.427,-7.427 -19.469,-7.427 -26.896,0l-48.092,48.092c9.508,6.358 9.191,14.771 22.767,14.771Z" style="fill:#c91d6b;fill-rule:nonzero;"/><path d="M354.151,538.262l-16.712,0l-0,-41.898l16.712,16.711l-0,25.187Z" style="fill:#4979bd;fill-rule:nonzero;"/><path d="M354.151,512.094l-16.712,-16.711l-0,-95.57c4.377,5.642 10.109,10.176 16.712,13.118l-0,99.163Zm-14.616,-91.531l-0.378,0.69l-0.69,0.378l0.69,0.378l0.378,0.69l0.377,-0.69l0.691,-0.378l-0.691,-0.378l-0.377,-0.69Zm-2.096,-74.063l-0,-70.444l16.712,-0l-0,57.326c-6.603,2.941 -12.335,7.476 -16.712,13.118Z" style="fill:url(#_Linear22);"/><path d="M354.151,512.094l-16.712,-16.711l16.712,16.711Z" style="fill:#4979bd;fill-rule:nonzero;"/><clipPath id="_clip23"><path d="M354.151,412.931c-6.603,-2.942 -12.335,-7.476 -16.712,-13.118l-0,-53.313c4.377,-5.642 10.109,-10.177 16.712,-13.118l-0,19.765c-5.532,4.894 -9.017,12.044 -9.017,20.009c0,7.965 3.485,15.115 9.017,20.01l-0,19.765Z"/></clipPath><g clip-path="url(#_clip23)"><rect x="337.439" y="333.382" width="16.712" height="79.549" style="fill:#808080;fill-opacity:0;"/></g><path d="M179.473,387.863c-5.531,-4.894 -9.016,-12.044 -9.016,-20.009c-0,-7.965 3.485,-15.116 9.016,-20.009l0,40.018Z" style="fill:#f3dace;fill-rule:nonzero;"/><path d="M246.294,532.96l-4.179,-0l-0,-149.591c1.921,-2.688 3.358,-5.747 4.179,-9.049l0,158.64Zm0,-171.572c-0.821,-3.302 -2.258,-6.361 -4.179,-9.049l-0,-81.586l4.179,0l0,90.635Z" style="fill:url(#_Linear24);"/><path d="M242.115,383.369l-0,-31.03c1.921,2.688 3.358,5.747 4.179,9.049l0,12.932c-0.821,3.302 -2.258,6.361 -4.179,9.049Z" style="fill:url(#_Linear25);"/><path d="M91.318,538.262l244.255,0l-4.662,-2.655c-0.458,-0.26 -0.976,-0.397 -1.503,-0.397l-16.684,-0c-0.987,-0 -1.913,-0.48 -2.482,-1.286l-1.759,-2.492c-0.569,-0.806 -1.495,-1.286 -2.482,-1.286l-30.861,0c-0.957,0 -1.857,0.45 -2.431,1.215l-0.858,1.144c-0.573,0.765 -1.474,1.215 -2.43,1.215l-14.861,0c-1.194,0 -2.277,-0.699 -2.768,-1.786c-0.492,-1.088 -1.575,-1.788 -2.769,-1.788l-32.974,0c-1.056,0 -2.037,-0.549 -2.589,-1.449l-11.923,-19.44c-0.553,-0.9 -1.533,-1.449 -2.59,-1.449l-17.829,-0c-1.011,-0 -1.956,0.503 -2.52,1.342l-9.215,13.697c-0.564,0.839 -1.509,1.342 -2.521,1.342l-6.117,0c-1.108,0 -2.128,-0.603 -2.662,-1.573l-1.545,-2.81c-0.534,-0.971 -1.554,-1.574 -2.661,-1.574l-20.451,0c-0.991,0 -1.92,0.484 -2.488,1.296l-6.526,9.323c-0.568,0.812 -1.497,1.295 -2.489,1.295l-30.605,0l0,8.116Z" style="fill:#e24f88;fill-rule:nonzero;"/><path d="M0.017,538.262l244.255,0l-4.663,-2.014c-0.458,-0.198 -0.976,-0.302 -1.503,-0.302l-16.684,-0c-0.987,-0 -1.912,-0.364 -2.481,-0.976l-1.759,-1.891c-0.569,-0.612 -1.495,-0.976 -2.482,-0.976l-30.862,0c-0.956,0 -1.856,0.342 -2.43,0.922l-0.858,0.868c-0.574,0.581 -1.474,0.922 -2.43,0.922l-14.861,0c-1.194,0 -2.277,-0.53 -2.769,-1.355c-0.491,-0.826 -1.575,-1.357 -2.768,-1.357l-32.974,0c-1.056,0 -2.037,-0.416 -2.59,-1.1l-11.922,-14.752c-0.553,-0.684 -1.534,-1.1 -2.59,-1.1l-17.829,-0c-1.012,-0 -1.956,0.381 -2.521,1.018l-9.214,10.395c-0.565,0.637 -1.51,1.019 -2.521,1.019l-6.117,-0c-1.108,-0 -2.128,-0.458 -2.662,-1.195l-1.545,-2.132c-0.534,-0.736 -1.554,-1.194 -2.662,-1.194l-20.45,-0c-0.991,-0 -1.92,0.367 -2.488,0.983l-6.527,7.075c-0.568,0.616 -1.497,0.983 -2.488,0.983l-30.605,0l0,6.159Z" style="fill:#e24f88;fill-rule:nonzero;"/><path d="M238.426,547.115l1.522,-5.327l9.741,-8.828l-14.003,-0l-28.616,-17.049l-0,-4.109l-12.177,-0l-5.936,3.349l-37.901,-0l-8.829,-10.351l-10.959,0l-0,2.588l3.501,1.827l0.152,5.936l-31.204,-0l-7.458,5.327l-8.524,0l-2.892,3.349l-11.872,-0l-0,15.678l-4.415,7.61l169.87,0Z" style="fill:#36284e;fill-rule:nonzero;"/><path d="M253.026,549.429l-197.684,0c-0.636,0 -1.157,-0.52 -1.157,-1.157c0,-0.636 0.521,-1.157 1.157,-1.157l197.684,0c0.636,0 1.157,0.521 1.157,1.157c-0,0.637 -0.521,1.157 -1.157,1.157Z" style="fill:#302c58;fill-rule:nonzero;"/><path d="M207.07,511.802l-12.177,-0l-5.936,3.349l-37.901,-0l-8.829,-10.351l-10.959,0l-0,2.588l3.501,1.827l0.152,5.936l-31.203,-0l-7.459,5.327l-8.524,0l-2.892,3.349l-11.872,-0l-0,9.133l162.715,-0l-28.616,-17.049l-0,-4.109Z" style="fill:#322663;fill-rule:nonzero;"/><path d="M217.347,529.616l-119.366,0l-0,-0.84l119.366,-0l-0,0.84Zm-5.784,-2.992l-111.141,-0l-0,-0.841l111.141,0l0,0.841Zm-5.115,-2.992l-102.667,-0l0,-0.841l102.667,0l0,0.841Zm-4.063,-2.993l-96.065,0l0,-0.84l96.065,0l0,0.84Z" style="fill:url(#_Radial26);"/><path d="M380.319,538.262l-0.981,0l0,-0.981l0.981,0.981Z" style="fill:url(#_Linear27);"/><path d="M373.757,532.682l-12.249,-12.248l0,-0.981l12.249,12.249l0,0.98Z" style="fill:url(#_Linear28);"/><path d="M379.338,538.262l-5.581,-5.58l0,-0.98l5.581,5.579l0,0.981Z" style="fill:url(#_Linear29);"/><path d="M361.508,520.434l-7.357,-7.359l-0,-0.981l7.357,7.359l0,0.981Z" style="fill:url(#_Linear30);"/><path d="M246.294,405.924c-1.28,-0.642 -2.67,-0.99 -4.071,-1.059c0.169,-0.008 0.338,-0.012 0.507,-0.012c1.21,0 2.419,0.211 3.564,0.64l0,0.431Z" style="fill:url(#_Linear31);"/><path d="M295.541,454.466l-11.624,-11.624c0.196,-0.13 0.394,-0.259 0.595,-0.386l11.029,11.03l-0,0.98Z" style="fill:url(#_Linear32);"/><path d="M283.917,442.842l-35.082,-35.082c-0.765,-0.765 -1.625,-1.376 -2.541,-1.836l0,-0.431c1.284,0.48 2.488,1.233 3.522,2.267l34.696,34.696c-0.201,0.127 -0.399,0.256 -0.595,0.386Z" style="fill:url(#_Linear33);"/><path d="M337.439,496.364l-41.898,-41.898l-0,-0.98l41.898,41.897l-0,0.981Z" style="fill:url(#_Linear34);"/><path d="M354.151,513.075l-16.712,-16.711l-0,-0.981l16.712,16.711l-0,0.981Z" style="fill:url(#_Linear35);"/><clipPath id="_clip36"><path d="M287.425,530.146l-1.15,0l-127.952,-127.951c0.81,0.339 1.592,0.743 2.348,1.196l126.754,126.755Z"/></clipPath><g clip-path="url(#_clip36)"><rect x="158.323" y="402.195" width="129.103" height="127.952" style="fill:#808080;fill-opacity:0;"/></g><path d="M160.671,403.391c-0.756,-0.453 -1.538,-0.857 -2.348,-1.196l-46.169,-46.169c-3.567,-3.566 -8.198,-5.401 -12.872,-5.542c0.194,-0.006 0.388,-0.009 0.582,-0.009c4.865,-0 9.73,1.84 13.441,5.551l47.366,47.365Z" style="fill:url(#_Linear37);"/><path d="M295.541,538.262l-1.151,0l-8.115,-8.116l1.15,0l8.116,8.116Z" style="fill:url(#_Linear38);"/><rect x="351.369" y="581.247" width="85.482" height="0.659" style="fill:#808080;fill-opacity:0;"/><rect x="136.387" y="562.718" width="145.293" height="0.66" style="fill:#808080;fill-opacity:0;"/><rect x="72.642" y="540.51" width="167.306" height="0.66" style="fill:url(#_Radial39);"/><clipPath id="_clip40"><path d="M338.283,572.9l-6.069,0c-0.034,-0.037 -0.069,-0.074 -0.103,-0.111l-0.503,-0.549l6.675,0l-0,0.66Z"/></clipPath><g clip-path="url(#_clip40)"><rect x="331.608" y="572.24" width="6.675" height="0.66" style="fill:#808080;fill-opacity:0;"/></g><clipPath id="_clip41"><path d="M332.214,572.9l-79.415,0l-0,-0.66l78.809,0l0.503,0.549c0.034,0.037 0.069,0.074 0.103,0.111Z"/></clipPath><g clip-path="url(#_clip41)"><rect x="252.799" y="572.24" width="79.415" height="0.66" style="fill:#808080;fill-opacity:0;"/></g><rect x="292.831" y="607.749" width="85.484" height="0.659" style="fill:#808080;fill-opacity:0;"/><clipPath id="_clip42"><rect x="378.227" y="619.453" width="85.486" height="0.66"/></clipPath><g clip-path="url(#_clip42)"><rect x="378.227" y="619.453" width="85.486" height="0.66" style="fill:#808080;fill-opacity:0;"/></g><rect x="357.276" y="551.37" width="101.168" height="0.66" style="fill:#808080;fill-opacity:0;"/><rect x="72.971" y="597.25" width="135.758" height="0.564" style="fill:#808080;fill-opacity:0;"/><rect x="13.798" y="571.911" width="85.484" height="0.66" style="fill:#808080;fill-opacity:0;"/><path d="M471.198,423.667l0.393,0.206l-0.074,-0.437l0.315,-0.31l-0.439,-0.063l-0.195,-0.398l-0.194,0.398l-0.443,0.063l0.319,0.31l-0.075,0.437l0.393,-0.206Z" style="fill:#fff;fill-rule:nonzero;"/><path d="M404.812,323.574l1.034,0.997l0.163,-1.426l1.267,-0.675l-1.306,-0.595l-0.252,-1.413l-0.969,1.058l-1.419,-0.199l0.704,1.249l-0.627,1.291l1.405,-0.287Z" style="fill:#fff;fill-rule:nonzero;"/><path d="M448.485,347.949l0.633,0.335l-0.12,-0.708l0.513,-0.501l-0.708,-0.103l-0.318,-0.643l-0.319,0.643l-0.711,0.103l0.516,0.501l-0.123,0.708l0.637,-0.335Z" style="fill:#fff;fill-rule:nonzero;"/><path d="M368.346,441.242l1.38,0.755l-1.38,0.756l-0.757,1.381l-0.754,-1.381l-1.381,-0.756l1.381,-0.755l0.754,-1.381l0.757,1.381Z" style="fill:#fff;fill-rule:nonzero;"/><path d="M198.877,356.882l1.381,0.755l-1.381,0.756l-0.755,1.38l-0.755,-1.38l-1.381,-0.756l1.381,-0.755l0.755,-1.381l0.755,1.381Z" style="fill:#fff;fill-rule:nonzero;"/><path d="M461.353,326.707l-0.379,-0.691l-0.69,-0.377l0.69,-0.377l0.379,-0.691l0.378,0.691l0.69,0.377l-0.69,0.377l-0.378,0.691Z" style="fill:url(#_Linear43);"/><path d="M202.177,332.443l-0.378,-0.69l-0.69,-0.378l0.69,-0.377l0.378,-0.691l0.378,0.691l0.69,0.377l-0.69,0.378l-0.378,0.69Z" style="fill:url(#_Linear44);"/><path d="M373.194,315.255l-0.169,-0.769l-0.56,-0.556l0.768,-0.169l0.524,-0.525l0,1.459l-0.01,0.002l-0.553,0.558Z" style="fill:url(#_Linear45);"/><path d="M373.757,314.695l0,-1.459l0.032,-0.032l0.17,0.768l0.559,0.556l-0.761,0.167Z" style="fill:url(#_Linear46);"/><path d="M481.561,395.781l-0.375,-0.69l-0.691,-0.378l0.691,-0.378l0.375,-0.69l0.378,0.69l0.69,0.378l-0.69,0.378l-0.378,0.69Z" style="fill:url(#_Linear47);"/><path d="M55.633,332.443l-0.378,-0.69l-0.69,-0.378l0.69,-0.377l0.378,-0.691l0.378,0.691l0.69,0.377l-0.69,0.378l-0.378,0.69Z" style="fill:url(#_Linear48);"/><path d="M229.308,314.713l-0.378,-0.69l-0.691,-0.378l0.691,-0.377l0.378,-0.691l0.377,0.691l0.691,0.377l-0.691,0.378l-0.377,0.69Z" style="fill:url(#_Linear49);"/><path d="M396.952,413.791l-0.379,-0.69l-0.69,-0.378l0.69,-0.377l0.379,-0.691l0.375,0.691l0.69,0.377l-0.69,0.378l-0.375,0.69Z" style="fill:url(#_Linear50);"/><path d="M431.819,420.608l-0.375,-0.691l-0.69,-0.377l0.69,-0.378l0.375,-0.69l0.379,0.69l0.69,0.378l-0.69,0.377l-0.379,0.691Z" style="fill:url(#_Linear51);"/><path d="M71.123,305.596l-0.378,-0.691l-0.691,-0.377l0.691,-0.378l0.378,-0.691l0.377,0.691l0.691,0.378l-0.691,0.377l-0.377,0.691Z" style="fill:url(#_Linear52);"/><path d="M220.533,362.529l-0.377,-0.691l-0.691,-0.377l0.691,-0.378l0.377,-0.69l0.378,0.69l0.691,0.378l-0.691,0.377l-0.378,0.691Z" style="fill:url(#_Linear53);"/><path d="M339.535,422.699l-0.378,-0.69l-0.69,-0.378l0.69,-0.378l0.378,-0.69l0.377,0.69l0.691,0.378l-0.691,0.378l-0.377,0.69Z" style="fill:url(#_Linear54);"/><path d="M166.223,365.539l-0.378,-0.691l-0.69,-0.377l0.69,-0.378l0.378,-0.69l0.378,0.69l0.69,0.378l-0.69,0.377l-0.378,0.691Z" style="fill:url(#_Linear55);"/><path d="M29.457,361.461l-0.377,-0.691l-0.691,-0.377l0.691,-0.378l0.377,-0.69l0.378,0.69l0.69,0.378l-0.69,0.377l-0.378,0.691Z" style="fill:url(#_Linear56);"/><path d="M235.543,380.311l-0.378,-0.69l-0.69,-0.378l0.69,-0.377l0.378,-0.69l0.377,0.69l0.691,0.377l-0.691,0.378l-0.377,0.69Z" style="fill:url(#_Linear57);"/><path d="M472.186,369.48l-0.379,-0.69l-0.69,-0.378l0.69,-0.378l0.379,-0.69l0.378,0.69l0.691,0.378l-0.691,0.378l-0.378,0.69Z" style="fill:url(#_Linear58);"/></g></g></g><path d="M989.143,446.215c0.573,4.029 0.857,8.152 0.857,12.341c0,7.353 -0.874,14.503 -2.548,21.35c-1.43,-5.019 -3.281,-9.861 -5.501,-14.497c3.093,-6.037 5.524,-12.466 7.192,-19.194Z" style="fill:#e54800;"/><path d="M920.713,716.688l-371.478,1.551l-74.678,-78.971c0,-0 234.618,-2.715 363.58,-4.207c21.812,-0.252 42.818,8.236 58.332,23.571c15.513,15.336 24.244,36.242 24.244,58.055l-0,0.001Z" style="fill:#007665;"/><path d="M520.072,567.66c0,-0 23.694,9.3 0,-0c5.148,-24.929 15.652,-57.186 32.957,-76.894c22.66,-27.037 105.073,-12.655 -32.957,76.894Z" style="fill:#0c009e;"/><path d="M513.028,718.747l-57.732,0.668c-21.813,0.252 -42.819,-8.236 -58.332,-23.571c-15.514,-15.335 -24.244,-36.241 -24.244,-58.055l-0,-0l371.478,-1.552l74.677,78.972l-288.671,3.34c-9.341,-14.557 -15.735,-31.176 -18.378,-49.011c-0.998,6.869 -1.509,13.898 -1.509,21.046c-0,9.63 0.928,19.045 2.711,28.163Z" style="fill:#007665;"/><path d="M530.199,718.549c22.322,34.962 61.466,58.15 105.983,58.15c30.345,-0 58.193,-10.774 79.928,-28.704l0.027,-0.021l0.711,-0.616c5.581,-4.548 12.705,-7.269 20.459,-7.269c17.937,-0 32.5,14.562 32.5,32.5c0,8.348 -3.154,15.965 -8.363,21.699c-1.083,1.088 -2.183,2.159 -3.305,3.211l-0.224,0.21c-26.295,24.72 -61.694,39.87 -100.603,39.87c-71.499,-0 -131.144,-51.158 -144.284,-118.832l17.171,-0.198Z" style="fill:#005c99;"/><path d="M735.221,805.023l-0.586,-0.043l0.765,0.053l0.089,0.005l1.581,0.049l0.237,0.002l-0.42,-0.003c-0.468,-0.006 -0.934,-0.022 -1.398,-0.048l-0.268,-0.015Z" style="fill:#005c99;"/><path d="M756.713,798.624l1.07,-0.808l-0.133,0.108l-0.937,0.7l-0.824,0.622l-0.122,0.085l-1.002,0.641l-0.873,0.565l-0.11,0.065l-1.069,0.579l-0.915,0.501l-0.096,0.047l-1.138,0.513l-0.95,0.431l-0.08,0.033l-1.214,0.443l-0.972,0.356l-0.062,0.02l-1.315,0.371l-0.965,0.274l-0.042,0.01l-1.502,0.304l-0.865,0.175l-0.022,0.004l-2.448,0.305l2.458,-0.307l0.877,-0.177l1.522,-0.31l0.987,-0.278l1.345,-0.382l1.004,-0.365l1.253,-0.46l0.991,-0.447l1.185,-0.538l0.964,-0.523l1.123,-0.614l0.929,-0.595l1.062,-0.686l0.886,-0.662Z" style="fill:#005c99;"/><path d="M733.577,804.877c-0.34,-0.039 -0.678,-0.083 -1.015,-0.133l-0.202,-0.03c0.404,0.062 0.809,0.116 1.217,0.163Z" style="fill:#005c99;"/><path d="M731.958,804.65l-0.21,-0.036l0.411,0.068l-0.201,-0.032Z" style="fill:#005c99;"/><path d="M440.824,467.542l-232.156,0l3.767,0.795l231.478,0l-3.089,-0.795Z" style="fill:#0087ff;"/><path d="M441.51,464.879c-0.224,-0.057 -0.455,-0.087 -0.686,-0.087l-232.156,0c-1.408,0 -2.589,1.064 -2.735,2.465c-0.146,1.401 0.79,2.686 2.168,2.976l3.767,0.795c0.186,0.039 0.377,0.059 0.567,0.059l231.478,0c1.385,0 2.554,-1.03 2.728,-2.404c0.174,-1.375 -0.701,-2.664 -2.043,-3.009l-3.088,-0.795Z" style="fill:#0087ff;"/><path d="M450.717,327.689l-232.156,-0l3.767,0.794l231.478,0l-3.089,-0.794Z" style="fill:#0087ff;"/><path d="M451.402,325.025c-0.223,-0.057 -0.454,-0.086 -0.685,-0.086l-232.156,-0c-1.408,-0 -2.589,1.063 -2.735,2.464c-0.146,1.401 0.79,2.686 2.168,2.976l3.767,0.795c0.186,0.039 0.377,0.059 0.567,0.059l231.478,0c1.385,0 2.554,-1.03 2.728,-2.404c0.174,-1.375 -0.701,-2.664 -2.043,-3.009l-3.089,-0.795Z" style="fill:#0087ff;"/><path d="M730.168,804.301l-0.197,-0.045l1.046,0.223c-0.285,-0.056 -0.569,-0.115 -0.849,-0.178Z" style="fill:#005c99;"/><path d="M729.384,804.114l-1.928,-0.547l1.928,0.547l0.391,0.096c-0.131,-0.031 -0.261,-0.063 -0.391,-0.096Z" style="fill:#005c99;"/><path d="M726.711,803.319l0.555,0.186l-0.567,-0.19l-0.069,-0.024l0.081,0.028Z" style="fill:#005c99;"/><path d="M723.154,801.849l2.426,1.056l0.185,0.071l-0.185,-0.071c-0.826,-0.32 -1.635,-0.672 -2.426,-1.056Z" style="fill:#005c99;"/><path d="M713.649,794.863c0.135,0.143 0.271,0.285 0.407,0.425l0.137,0.139c1.199,1.214 2.494,2.333 3.87,3.347l1.404,0.978l0.328,0.214c1.01,0.647 2.058,1.241 3.141,1.776l-1.598,-0.846l-1.544,-0.931l-0.327,-0.213l-1.404,-0.978c-1.376,-1.013 -2.67,-2.133 -3.87,-3.347c0,-0 -0.544,-0.564 -0.544,-0.564Z" style="fill:#005c99;"/><path d="M710.92,791.556c0,0 0.256,0.35 0.256,0.35l-0.256,-0.35c0,0 -0.226,-0.318 -0.226,-0.318l-0.112,-0.161l0.338,0.479Z" style="fill:#005c99;"/><path d="M710.322,790.697c-0.097,-0.144 -0.192,-0.288 -0.286,-0.432l-0.106,-0.164c0.128,0.2 0.259,0.398 0.392,0.596Z" style="fill:#005c99;"/><path d="M707.762,786.138l-0.018,-0.043l0.428,0.838l0.943,1.827c0.131,0.228 0.265,0.453 0.4,0.676l-0.101,-0.168c-0.101,-0.168 -0.201,-0.338 -0.299,-0.508c0,0 -0.097,-0.17 -0.097,-0.17l-0.846,-1.657l-0.41,-0.795Z" style="fill:#005c99;"/><path d="M706.153,781.866l0.085,0.28l-0.085,-0.28Z" style="fill:#005c99;"/><path d="M706.041,781.482l-0.481,-1.914l0.536,2.106l-0.055,-0.192Z" style="fill:#005c99;"/><path d="M705.468,779.135l-0.04,-0.198l-0.077,-0.399l0.117,0.597Z" style="fill:#005c99;"/><path d="M705.246,777.938l0.034,0.2l-0.067,-0.401c0.011,0.067 0.022,0.134 0.033,0.201Z" style="fill:#005c99;"/><path d="M705.068,776.726l-0.043,-0.353l0.07,0.556l-0.027,-0.203Z" style="fill:#005c99;"/><path d="M704.81,773.008l-0.002,-0.209l0.019,0.928c-0.009,-0.24 -0.014,-0.479 -0.017,-0.719Z" style="fill:#005c99;"/><path d="M704.808,772.358l0.053,-1.646c-0.036,0.622 -0.054,1.247 -0.054,1.877l0.001,-0.231Z" style="fill:#005c99;"/><path d="M714.649,749.327l0.01,-0.009l-0.456,0.469l-0.912,0.94l-0.512,0.593l-0.77,0.896l-0.509,0.667l-0.681,0.898l-0.485,0.723l-0.61,0.915l-0.452,0.769l-0.544,0.937l-0.412,0.81l-0.481,0.96l-0.368,0.848l-0.46,1.082l-0.136,0.354l-0.198,0.543l0.205,-0.56c0.042,-0.113 0.085,-0.225 0.129,-0.337l0.079,-0.202l0.381,-0.88l0.326,-0.764l0.08,-0.171l0.443,-0.873l0.371,-0.741l0.077,-0.141l0.508,-0.865l0.415,-0.714l0.071,-0.113l0.576,-0.857l0.453,-0.681l0.062,-0.087l0.651,-0.853l0.483,-0.637l0.051,-0.062l0.745,-0.864l0.493,-0.574l0.036,-0.04l0.895,-0.919l0.446,-0.46Z" style="fill:#005c99;"/><path d="M439.913,329.261l-179.964,103.903l-0.17,0.098l177.036,-102.212l3.098,-1.789Z" style="fill:#0087ff;"/><path d="M438.538,326.88l-180.134,104l1.375,5.132c0.483,-0 0.957,-0.128 1.375,-0.369l180.134,-104c1.315,-0.759 1.766,-2.441 1.006,-3.757c-0.759,-1.315 -2.441,-1.766 -3.756,-1.006Z" style="fill:#0087ff;"/><path d="M440.954,468.225l-222.393,-139.742l3.131,3.029l221.742,139.333l-2.48,-2.62Z" style="fill:#0087ff;"/><path d="M442.951,466.334c-0.159,-0.167 -0.338,-0.315 -0.534,-0.438l-222.393,-139.741c-1.192,-0.75 -2.758,-0.477 -3.627,0.631c-0.869,1.109 -0.76,2.694 0.252,3.674l3.13,3.028c0.137,0.133 0.288,0.251 0.449,0.353l221.743,139.333c1.173,0.737 2.711,0.486 3.59,-0.585c0.878,-1.071 0.823,-2.628 -0.129,-3.634l-2.481,-2.621Z" style="fill:#0087ff;"/><path d="M218.869,351.623l0,-32.567l-10.201,0.528l0,15.472l10.201,16.567Z" style="fill:#0087ff;"/><path d="M450.114,551.056l-0,-232l-10.201,3.765l-0,227.235l10.201,1Z" style="fill:#0087ff;"/><circle cx="265.663" cy="520.368" r="17.75" style="fill:#005c99;"/><path d="M391.046,566.425c0,-3.423 -2.779,-6.202 -6.202,-6.202l-130.729,0c-3.423,0 -6.202,2.779 -6.202,6.202c-0,3.423 2.779,6.202 6.202,6.202l130.729,0c3.423,0 6.202,-2.779 6.202,-6.202Z" style="fill:#005c99;"/><path d="M391.046,852.416c0,-2.13 -1.73,-3.86 -3.86,-3.86l-112.707,-0c-2.13,-0 -3.86,1.73 -3.86,3.86c0,2.13 1.73,3.86 3.86,3.86l112.707,0c2.13,0 3.86,-1.73 3.86,-3.86Z" style="fill:#005c99;fill-opacity:0.39;"/><path d="M391.046,197.461c0,-6.54 -5.31,-11.85 -11.85,-11.85l-96.727,-0c-6.54,-0 -11.85,5.31 -11.85,11.85c0,6.54 5.31,11.849 11.85,11.849l96.727,0c6.54,0 11.85,-5.309 11.85,-11.849Z" style="fill:#0087ff;"/><path d="M391.046,592.892c0,-2.025 -1.644,-3.669 -3.669,-3.669l-135.795,0c-2.025,0 -3.669,1.644 -3.669,3.669c-0,2.026 1.644,3.67 3.669,3.67l135.795,-0c2.025,-0 3.669,-1.644 3.669,-3.67Z" style="fill:#005c99;"/><path d="M391.046,617.387c0,-2.025 -1.644,-3.669 -3.669,-3.669l-135.795,-0c-2.025,-0 -3.669,1.644 -3.669,3.669c-0,2.025 1.644,3.669 3.669,3.669l135.795,-0c2.025,-0 3.669,-1.644 3.669,-3.669Z" style="fill:#005c99;"/><path d="M391.046,605.14c0,-2.025 -1.644,-3.67 -3.669,-3.67l-135.795,0c-2.025,0 -3.669,1.645 -3.669,3.67c-0,2.025 1.644,3.669 3.669,3.669l135.795,-0c2.025,-0 3.669,-1.644 3.669,-3.669Z" style="fill:#005c99;"/><path d="M391.046,629.634c0,-2.025 -1.644,-3.669 -3.669,-3.669l-135.795,-0c-2.025,-0 -3.669,1.644 -3.669,3.669c-0,2.025 1.644,3.669 3.669,3.669l135.795,-0c2.025,-0 3.669,-1.644 3.669,-3.669Z" style="fill:#005c99;"/><defs><linearGradient id="_Linear3" x1="0" y1="0" x2="1" y2="0" gradientUnits="userSpaceOnUse" gradientTransform="matrix(3.04274e-12,-293.888,293.888,3.04274e-12,255.92,521.053)"><stop offset="0" style="stop-color:#322663;stop-opacity:1"/><stop offset="0.6" style="stop-color:#312c3a;stop-opacity:1"/><stop offset="1" style="stop-color:#221c1c;stop-opacity:1"/></linearGradient><linearGradient id="_Linear4" x1="0" y1="0" x2="1" y2="0" gradientUnits="userSpaceOnUse" gradientTransform="matrix(3.04274e-12,-293.888,293.888,3.04274e-12,255.92,521.053)"><stop offset="0" style="stop-color:#2e2e88;stop-opacity:1"/><stop offset="0.3" style="stop-color:#2b266a;stop-opacity:1"/><stop offset="0.7" style="stop-color:#2e3241;stop-opacity:1"/><stop offset="0.9" style="stop-color:#202220;stop-opacity:1"/><stop offset="1" style="stop-color:#1d1e1c;stop-opacity:1"/></linearGradient><linearGradient id="_Linear5" x1="0" y1="0" x2="1" y2="0" gradientUnits="userSpaceOnUse" gradientTransform="matrix(3.04274e-12,-293.888,293.888,3.04274e-12,255.92,521.053)"><stop offset="0" style="stop-color:#2e2e88;stop-opacity:1"/><stop offset="0.3" style="stop-color:#2b266a;stop-opacity:1"/><stop offset="0.7" style="stop-color:#2e3241;stop-opacity:1"/><stop offset="0.9" style="stop-color:#202220;stop-opacity:1"/><stop offset="1" style="stop-color:#1d1e1c;stop-opacity:1"/></linearGradient><linearGradient id="_Linear6" x1="0" y1="0" x2="1" y2="0" gradientUnits="userSpaceOnUse" gradientTransform="matrix(3.04274e-12,-293.888,293.888,3.04274e-12,255.92,521.053)"><stop offset="0" style="stop-color:#2e2e88;stop-opacity:1"/><stop offset="0.3" style="stop-color:#2b266a;stop-opacity:1"/><stop offset="0.7" style="stop-color:#2e3241;stop-opacity:1"/><stop offset="0.9" style="stop-color:#202220;stop-opacity:1"/><stop offset="1" style="stop-color:#1d1e1c;stop-opacity:1"/></linearGradient><linearGradient id="_Linear7" x1="0" y1="0" x2="1" y2="0" gradientUnits="userSpaceOnUse" gradientTransform="matrix(3.04274e-12,-293.888,293.888,3.04274e-12,255.92,521.053)"><stop offset="0" style="stop-color:#2e2e88;stop-opacity:1"/><stop offset="0.3" style="stop-color:#2b266a;stop-opacity:1"/><stop offset="0.7" style="stop-color:#2e3241;stop-opacity:1"/><stop offset="0.9" style="stop-color:#202220;stop-opacity:1"/><stop offset="1" style="stop-color:#1d1e1c;stop-opacity:1"/></linearGradient><linearGradient id="_Linear8" x1="0" y1="0" x2="1" y2="0" gradientUnits="userSpaceOnUse" gradientTransform="matrix(3.04274e-12,-293.888,293.888,3.04274e-12,255.92,521.053)"><stop offset="0" style="stop-color:#354ca0;stop-opacity:1"/><stop offset="0.3" style="stop-color:#2e3091;stop-opacity:1"/><stop offset="0.5" style="stop-color:#2b2872;stop-opacity:1"/><stop offset="0.7" style="stop-color:#2d3553;stop-opacity:1"/><stop offset="0.9" style="stop-color:#1e2a2a;stop-opacity:1"/><stop offset="1" style="stop-color:#202522;stop-opacity:1"/></linearGradient><linearGradient id="_Linear9" x1="0" y1="0" x2="1" y2="0" gradientUnits="userSpaceOnUse" gradientTransform="matrix(3.04274e-12,-293.888,293.888,3.04274e-12,255.92,521.053)"><stop offset="0" style="stop-color:#354ca0;stop-opacity:1"/><stop offset="0.3" style="stop-color:#2e3091;stop-opacity:1"/><stop offset="0.5" style="stop-color:#2b2872;stop-opacity:1"/><stop offset="0.7" style="stop-color:#2d3553;stop-opacity:1"/><stop offset="0.9" style="stop-color:#1e2a2a;stop-opacity:1"/><stop offset="1" style="stop-color:#202522;stop-opacity:1"/></linearGradient><linearGradient id="_Linear10" x1="0" y1="0" x2="1" y2="0" gradientUnits="userSpaceOnUse" gradientTransform="matrix(145.96,-45.9067,45.9067,145.96,31.8368,496.064)"><stop offset="0" style="stop-color:#9d2060;stop-opacity:1"/><stop offset="1" style="stop-color:#ca1f5c;stop-opacity:1"/></linearGradient><linearGradient id="_Linear11" x1="0" y1="0" x2="1" y2="0" gradientUnits="userSpaceOnUse" gradientTransform="matrix(511.806,0,0,511.806,0.01734,584.112)"><stop offset="0" style="stop-color:#322663;stop-opacity:1"/><stop offset="0.2" style="stop-color:#322663;stop-opacity:1"/><stop offset="0.6" style="stop-color:#2e3484;stop-opacity:1"/><stop offset="0.7" style="stop-color:#234090;stop-opacity:1"/><stop offset="0.8" style="stop-color:#30307f;stop-opacity:1"/><stop offset="1" style="stop-color:#322663;stop-opacity:1"/></linearGradient><linearGradient id="_Linear20" x1="0" y1="0" x2="1" y2="0" gradientUnits="userSpaceOnUse" gradientTransform="matrix(3.04274e-12,-293.888,293.888,3.04274e-12,255.92,521.053)"><stop offset="0" style="stop-color:#404fa2;stop-opacity:1"/><stop offset="0.1" style="stop-color:#3a469c;stop-opacity:1"/><stop offset="0.3" style="stop-color:#3d3985;stop-opacity:1"/><stop offset="0.8" style="stop-color:#54565b;stop-opacity:1"/><stop offset="1" style="stop-color:#5b5740;stop-opacity:1"/></linearGradient><linearGradient id="_Linear22" x1="0" y1="0" x2="1" y2="0" gradientUnits="userSpaceOnUse" gradientTransform="matrix(3.04274e-12,-293.888,293.888,3.04274e-12,255.92,521.053)"><stop offset="0" style="stop-color:#3762ae;stop-opacity:1"/><stop offset="0.3" style="stop-color:#3854a5;stop-opacity:1"/><stop offset="0.5" style="stop-color:#293b97;stop-opacity:1"/><stop offset="0.6" style="stop-color:#2e2e84;stop-opacity:1"/><stop offset="0.7" style="stop-color:#252e6d;stop-opacity:1"/><stop offset="0.8" style="stop-color:#253754;stop-opacity:1"/><stop offset="0.9" style="stop-color:#203539;stop-opacity:1"/><stop offset="1" style="stop-color:#252f28;stop-opacity:1"/></linearGradient><linearGradient id="_Linear24" x1="0" y1="0" x2="1" y2="0" gradientUnits="userSpaceOnUse" gradientTransform="matrix(3.04274e-12,-293.888,293.888,3.04274e-12,81.2422,515.751)"><stop offset="0" style="stop-color:#354ca0;stop-opacity:1"/><stop offset="0.3" style="stop-color:#2e3091;stop-opacity:1"/><stop offset="0.5" style="stop-color:#2b2872;stop-opacity:1"/><stop offset="0.7" style="stop-color:#2d3553;stop-opacity:1"/><stop offset="0.9" style="stop-color:#1e2a2a;stop-opacity:1"/><stop offset="1" style="stop-color:#202522;stop-opacity:1"/></linearGradient><linearGradient id="_Linear25" x1="0" y1="0" x2="1" y2="0" gradientUnits="userSpaceOnUse" gradientTransform="matrix(3.04274e-12,-293.888,293.888,3.04274e-12,81.2422,515.751)"><stop offset="0" style="stop-color:#327bbf;stop-opacity:1"/><stop offset="0.5" style="stop-color:#0066b2;stop-opacity:1"/><stop offset="0.7" style="stop-color:#036192;stop-opacity:1"/><stop offset="1" style="stop-color:#1e6561;stop-opacity:1"/></linearGradient><radialGradient id="_Radial26" cx="0" cy="0" r="1" gradientUnits="userSpaceOnUse" gradientTransform="matrix(49.8842,0,0,49.8842,157.664,524.707)"><stop offset="0" style="stop-color:#9291b2;stop-opacity:1"/><stop offset="0.4" style="stop-color:#5c538c;stop-opacity:1"/><stop offset="0.6" style="stop-color:#3e2f79;stop-opacity:1"/><stop offset="1" style="stop-color:#322663;stop-opacity:1"/></radialGradient><linearGradient id="_Linear27" x1="0" y1="0" x2="1" y2="0" gradientUnits="userSpaceOnUse" gradientTransform="matrix(138.095,0,0,138.095,242.223,471.557)"><stop offset="0" style="stop-color:#f8d8d6;stop-opacity:1"/><stop offset="0.6" style="stop-color:#ae7eb0;stop-opacity:1"/><stop offset="0.9" style="stop-color:#872a8f;stop-opacity:1"/><stop offset="1" style="stop-color:#7b2a89;stop-opacity:1"/></linearGradient><linearGradient id="_Linear28" x1="0" y1="0" x2="1" y2="0" gradientUnits="userSpaceOnUse" gradientTransform="matrix(138.095,0,0,138.095,242.223,471.557)"><stop offset="0" style="stop-color:#f8d8d6;stop-opacity:1"/><stop offset="0.6" style="stop-color:#ae7eb0;stop-opacity:1"/><stop offset="0.9" style="stop-color:#872a8f;stop-opacity:1"/><stop offset="1" style="stop-color:#7b2a89;stop-opacity:1"/></linearGradient><linearGradient id="_Linear29" x1="0" y1="0" x2="1" y2="0" gradientUnits="userSpaceOnUse" gradientTransform="matrix(138.095,0,0,138.095,242.223,471.557)"><stop offset="0" style="stop-color:#f7ddeb;stop-opacity:1"/><stop offset="1" style="stop-color:#5b5eaa;stop-opacity:1"/></linearGradient><linearGradient id="_Linear30" x1="0" y1="0" x2="1" y2="0" gradientUnits="userSpaceOnUse" gradientTransform="matrix(138.095,0,0,138.095,242.223,471.557)"><stop offset="0" style="stop-color:#f7ddeb;stop-opacity:1"/><stop offset="1" style="stop-color:#5b5eaa;stop-opacity:1"/></linearGradient><linearGradient id="_Linear31" x1="0" y1="0" x2="1" y2="0" gradientUnits="userSpaceOnUse" gradientTransform="matrix(138.095,0,0,138.095,242.223,471.557)"><stop offset="0" style="stop-color:#f9d7c7;stop-opacity:1"/><stop offset="0.6" style="stop-color:#c67994;stop-opacity:1"/><stop offset="0.9" style="stop-color:#af2271;stop-opacity:1"/><stop offset="1" style="stop-color:#a6236d;stop-opacity:1"/></linearGradient><linearGradient id="_Linear32" x1="0" y1="0" x2="1" y2="0" gradientUnits="userSpaceOnUse" gradientTransform="matrix(138.095,0,0,138.095,242.223,471.557)"><stop offset="0" style="stop-color:#f8d8d6;stop-opacity:1"/><stop offset="0.6" style="stop-color:#ae7eb0;stop-opacity:1"/><stop offset="0.9" style="stop-color:#872a8f;stop-opacity:1"/><stop offset="1" style="stop-color:#7b2a89;stop-opacity:1"/></linearGradient><linearGradient id="_Linear33" x1="0" y1="0" x2="1" y2="0" gradientUnits="userSpaceOnUse" gradientTransform="matrix(138.095,0,0,138.095,242.223,471.557)"><stop offset="0" style="stop-color:#f8dce4;stop-opacity:1"/><stop offset="1" style="stop-color:#894a9d;stop-opacity:1"/></linearGradient><linearGradient id="_Linear34" x1="0" y1="0" x2="1" y2="0" gradientUnits="userSpaceOnUse" gradientTransform="matrix(138.095,0,0,138.095,242.223,471.557)"><stop offset="0" style="stop-color:#f7ddeb;stop-opacity:1"/><stop offset="1" style="stop-color:#5b5eaa;stop-opacity:1"/></linearGradient><linearGradient id="_Linear35" x1="0" y1="0" x2="1" y2="0" gradientUnits="userSpaceOnUse" gradientTransform="matrix(138.095,0,0,138.095,242.223,471.557)"><stop offset="0" style="stop-color:#f5e3ef;stop-opacity:1"/><stop offset="1" style="stop-color:#4979bd;stop-opacity:1"/></linearGradient><linearGradient id="_Linear37" x1="0" y1="0" x2="1" y2="0" gradientUnits="userSpaceOnUse" gradientTransform="matrix(67.7632,-21.3127,21.3127,67.7632,154.037,458.015)"><stop offset="0" style="stop-color:#fad8c7;stop-opacity:1"/><stop offset="0.6" style="stop-color:#dc8396;stop-opacity:1"/><stop offset="0.9" style="stop-color:#ce3573;stop-opacity:1"/><stop offset="1" style="stop-color:#c91d6b;stop-opacity:1"/></linearGradient><linearGradient id="_Linear38" x1="0" y1="0" x2="1" y2="0" gradientUnits="userSpaceOnUse" gradientTransform="matrix(67.7632,-21.3127,21.3127,67.7632,154.037,458.015)"><stop offset="0" style="stop-color:#fcded2;stop-opacity:1"/><stop offset="1" style="stop-color:#e24f88;stop-opacity:1"/></linearGradient><radialGradient id="_Radial39" cx="0" cy="0" r="1" gradientUnits="userSpaceOnUse" gradientTransform="matrix(59.1538,0,0,26.2392,156.295,540.84)"><stop offset="0" style="stop-color:#9388a1;stop-opacity:1"/><stop offset="0.5" style="stop-color:#553069;stop-opacity:1"/><stop offset="0.6" style="stop-color:#4b2662;stop-opacity:1"/><stop offset="1" style="stop-color:#36284e;stop-opacity:1"/></radialGradient><linearGradient id="_Linear43" x1="0" y1="0" x2="1" y2="0" gradientUnits="userSpaceOnUse" gradientTransform="matrix(3.04274e-12,-293.888,293.888,3.04274e-12,255.92,521.053)"><stop offset="0" style="stop-color:#5065af;stop-opacity:1"/><stop offset="0.3" style="stop-color:#525894;stop-opacity:1"/><stop offset="1" style="stop-color:#68634e;stop-opacity:1"/></linearGradient><linearGradient id="_Linear44" x1="0" y1="0" x2="1" y2="0" gradientUnits="userSpaceOnUse" gradientTransform="matrix(3.04274e-12,-293.888,293.888,3.04274e-12,255.92,521.053)"><stop offset="0" style="stop-color:#5065af;stop-opacity:1"/><stop offset="0.3" style="stop-color:#525894;stop-opacity:1"/><stop offset="1" style="stop-color:#68634e;stop-opacity:1"/></linearGradient><linearGradient id="_Linear45" x1="0" y1="0" x2="1" y2="0" gradientUnits="userSpaceOnUse" gradientTransform="matrix(3.04274e-12,-293.888,293.888,3.04274e-12,255.92,521.053)"><stop offset="0" style="stop-color:#5065af;stop-opacity:1"/><stop offset="0.3" style="stop-color:#525894;stop-opacity:1"/><stop offset="1" style="stop-color:#68634e;stop-opacity:1"/></linearGradient><linearGradient id="_Linear46" x1="0" y1="0" x2="1" y2="0" gradientUnits="userSpaceOnUse" gradientTransform="matrix(3.04274e-12,-293.888,293.888,3.04274e-12,255.92,521.053)"><stop offset="0" style="stop-color:#5977ba;stop-opacity:1"/><stop offset="0.4" style="stop-color:#4863ae;stop-opacity:1"/><stop offset="0.6" style="stop-color:#4a5b8e;stop-opacity:1"/><stop offset="1" style="stop-color:#60674d;stop-opacity:1"/></linearGradient><linearGradient id="_Linear47" x1="0" y1="0" x2="1" y2="0" gradientUnits="userSpaceOnUse" gradientTransform="matrix(3.04274e-12,-293.888,293.888,3.04274e-12,255.92,521.053)"><stop offset="0" style="stop-color:#5065af;stop-opacity:1"/><stop offset="0.3" style="stop-color:#525894;stop-opacity:1"/><stop offset="1" style="stop-color:#68634e;stop-opacity:1"/></linearGradient><linearGradient id="_Linear48" x1="0" y1="0" x2="1" y2="0" gradientUnits="userSpaceOnUse" gradientTransform="matrix(3.04274e-12,-293.888,293.888,3.04274e-12,255.92,521.053)"><stop offset="0" style="stop-color:#5065af;stop-opacity:1"/><stop offset="0.3" style="stop-color:#525894;stop-opacity:1"/><stop offset="1" style="stop-color:#68634e;stop-opacity:1"/></linearGradient><linearGradient id="_Linear49" x1="0" y1="0" x2="1" y2="0" gradientUnits="userSpaceOnUse" gradientTransform="matrix(3.04274e-12,-293.888,293.888,3.04274e-12,255.92,521.053)"><stop offset="0" style="stop-color:#5d578d;stop-opacity:1"/><stop offset="1" style="stop-color:#6f5f4f;stop-opacity:1"/></linearGradient><linearGradient id="_Linear50" x1="0" y1="0" x2="1" y2="0" gradientUnits="userSpaceOnUse" gradientTransform="matrix(3.04274e-12,-293.888,293.888,3.04274e-12,255.92,521.053)"><stop offset="0" style="stop-color:#5065af;stop-opacity:1"/><stop offset="0.3" style="stop-color:#525894;stop-opacity:1"/><stop offset="1" style="stop-color:#68634e;stop-opacity:1"/></linearGradient><linearGradient id="_Linear51" x1="0" y1="0" x2="1" y2="0" gradientUnits="userSpaceOnUse" gradientTransform="matrix(3.04274e-12,-293.888,293.888,3.04274e-12,255.92,521.053)"><stop offset="0" style="stop-color:#5065af;stop-opacity:1"/><stop offset="0.3" style="stop-color:#525894;stop-opacity:1"/><stop offset="1" style="stop-color:#68634e;stop-opacity:1"/></linearGradient><linearGradient id="_Linear52" x1="0" y1="0" x2="1" y2="0" gradientUnits="userSpaceOnUse" gradientTransform="matrix(3.04274e-12,-293.888,293.888,3.04274e-12,255.92,521.053)"><stop offset="0" style="stop-color:#5065af;stop-opacity:1"/><stop offset="0.3" style="stop-color:#525894;stop-opacity:1"/><stop offset="1" style="stop-color:#68634e;stop-opacity:1"/></linearGradient><linearGradient id="_Linear53" x1="0" y1="0" x2="1" y2="0" gradientUnits="userSpaceOnUse" gradientTransform="matrix(3.04274e-12,-293.888,293.888,3.04274e-12,255.92,521.053)"><stop offset="0" style="stop-color:#5d578d;stop-opacity:1"/><stop offset="1" style="stop-color:#6f5f4f;stop-opacity:1"/></linearGradient><linearGradient id="_Linear54" x1="0" y1="0" x2="1" y2="0" gradientUnits="userSpaceOnUse" gradientTransform="matrix(3.04274e-12,-293.888,293.888,3.04274e-12,255.92,521.053)"><stop offset="0" style="stop-color:#5a84c3;stop-opacity:1"/><stop offset="0.5" style="stop-color:#4f71b7;stop-opacity:1"/><stop offset="0.6" style="stop-color:#4266b0;stop-opacity:1"/><stop offset="0.8" style="stop-color:#476783;stop-opacity:1"/><stop offset="1" style="stop-color:#5c6c49;stop-opacity:1"/></linearGradient><linearGradient id="_Linear55" x1="0" y1="0" x2="1" y2="0" gradientUnits="userSpaceOnUse" gradientTransform="matrix(3.04274e-12,-293.888,293.888,3.04274e-12,255.92,521.053)"><stop offset="0" style="stop-color:#5065af;stop-opacity:1"/><stop offset="0.3" style="stop-color:#525894;stop-opacity:1"/><stop offset="1" style="stop-color:#68634e;stop-opacity:1"/></linearGradient><linearGradient id="_Linear56" x1="0" y1="0" x2="1" y2="0" gradientUnits="userSpaceOnUse" gradientTransform="matrix(3.04274e-12,-293.888,293.888,3.04274e-12,255.92,521.053)"><stop offset="0" style="stop-color:#5065af;stop-opacity:1"/><stop offset="0.3" style="stop-color:#525894;stop-opacity:1"/><stop offset="1" style="stop-color:#68634e;stop-opacity:1"/></linearGradient><linearGradient id="_Linear57" x1="0" y1="0" x2="1" y2="0" gradientUnits="userSpaceOnUse" gradientTransform="matrix(3.04274e-12,-293.888,293.888,3.04274e-12,255.92,521.053)"><stop offset="0" style="stop-color:#5d578d;stop-opacity:1"/><stop offset="1" style="stop-color:#6f5f4f;stop-opacity:1"/></linearGradient><linearGradient id="_Linear58" x1="0" y1="0" x2="1" y2="0" gradientUnits="userSpaceOnUse" gradientTransform="matrix(3.04274e-12,-293.888,293.888,3.04274e-12,255.92,521.053)"><stop offset="0" style="stop-color:#5065af;stop-opacity:1"/><stop offset="0.3" style="stop-color:#525894;stop-opacity:1"/><stop offset="1" style="stop-color:#68634e;stop-opacity:1"/></linearGradient></defs></svg>